<?xml version="1.0" encoding="UTF-8" standalone="no"?>
<!-- Created with Inkscape (http://www.inkscape.org/) -->

<svg
   version="1.1"
   id="svg30"
   width="1583.6508"
   height="469.40405"
   viewBox="0 0 1583.6508 469.40405"
   sodipodi:docname="Andor.svg"
   inkscape:version="1.1.1 (3bf5ae0d25, 2021-09-20)"
   xmlns:inkscape="http://www.inkscape.org/namespaces/inkscape"
   xmlns:sodipodi="http://sodipodi.sourceforge.net/DTD/sodipodi-0.dtd"
   xmlns="http://www.w3.org/2000/svg"
   xmlns:svg="http://www.w3.org/2000/svg">
  <defs
     id="defs34" />
  <sodipodi:namedview
     id="namedview32"
     pagecolor="#ffffff"
     bordercolor="#666666"
     borderopacity="1.0"
     inkscape:pageshadow="2"
     inkscape:pageopacity="0.0"
     inkscape:pagecheckerboard="0"
     showgrid="false"
     fit-margin-top="0"
     fit-margin-left="0"
     fit-margin-right="0"
     fit-margin-bottom="0"
     inkscape:zoom="0.17550505"
     inkscape:cx="509.95683"
     inkscape:cy="116.80576"
     inkscape:window-width="1920"
     inkscape:window-height="1017"
     inkscape:window-x="-8"
     inkscape:window-y="-8"
     inkscape:window-maximized="1"
     inkscape:current-layer="g36" />
  <g
     inkscape:groupmode="layer"
     inkscape:label="Image"
     id="g36"
     transform="translate(-51.309866,-823.35329)">
    <g
       id="g158"
       transform="translate(51.280576,823.33813)">
      <path
         style="fill:#ec7801;stroke-width:0.32"
         d="m 181.28,446.90794 c -8.58393,-1.43421 -15.07333,-4.76813 -20.52739,-10.54592 -6.14033,-6.50484 -9.19436,-14.10269 -10.04185,-24.98224 -0.59051,-7.58068 0.40268,-16.62032 2.45391,-22.33456 3.9649,-11.04525 12.82481,-19.38164 23.52646,-22.13632 6.41642,-1.65165 15.56285,-1.87908 21.86887,-0.54375 13.29463,2.81514 23.12121,11.89501 26.86877,24.82707 3.09366,10.67559 2.57149,24.93853 -1.25681,34.32906 -1.69676,4.16202 -3.84296,7.49142 -6.95311,10.78634 -5.07502,5.37654 -10.66229,8.49715 -18.3951,10.27408 -3.03801,0.69811 -14.0882,0.90358 -17.54375,0.32624 z M 194.4,433.0881 c 5.48632,-1.29904 10.69936,-5.50954 13.23298,-10.6881 2.16762,-4.4305 3.2479,-9.8056 3.24612,-16.15162 -0.004,-13.88844 -4.90317,-22.59449 -14.63,-25.99766 -2.27311,-0.79533 -2.89173,-0.87027 -7.1291,-0.86368 -4.16872,0.006 -4.90257,0.0945 -7.22509,0.86666 -1.4218,0.4727 -3.4378,1.41328 -4.48,2.09017 -2.61359,1.69754 -5.84343,5.23082 -7.07427,7.73895 -4.59721,9.36787 -4.31202,25.37308 0.59671,33.48809 4.85956,8.0337 14.02543,11.75168 23.46265,9.51719 z m 155.63174,13.79187 c -6.44649,-1.22051 -13.28483,-4.8721 -16.63673,-8.88381 -4.00051,-4.78794 -6.024,-10.09875 -6.70935,-17.60906 -1.47558,-16.17001 7.65415,-29.29964 22.50084,-32.35888 3.29091,-0.67808 10.64512,-0.67945 13.947,-0.003 8.55773,1.75431 15.64804,7.29348 19.70173,15.39165 3.06042,6.11392 3.82355,14.9896 1.93475,22.50272 -0.62147,2.4721 -2.53017,6.7009 -3.99696,8.85546 -1.54195,2.26502 -5.29929,6.06953 -7.43187,7.52518 -2.51187,1.71456 -6.09542,3.3808 -8.92451,4.14963 -3.14579,0.85488 -10.91357,1.08692 -14.3849,0.4297 z m 10.47021,-12.64371 c 2.41891,-0.81687 5.13232,-2.9385 6.61504,-5.17232 3.57895,-5.39191 4.06231,-15.0304 1.08035,-21.54394 -2.36902,-5.17472 -8.67212,-8.57878 -14.03734,-7.58102 -5.6231,1.04572 -9.66944,4.99385 -11.32426,11.0494 -1.15987,4.24448 -0.79996,11.03725 0.80813,15.25162 1.35239,3.54422 4.6049,6.7712 8.03613,7.97302 2.44662,0.85696 6.32298,0.86717 8.82195,0.0234 z m 90.40109,12.62678 c -6.61443,-1.43443 -12.92733,-6.86432 -16.08998,-13.83939 -1.86138,-4.10515 -2.5425,-7.59968 -2.72759,-13.99373 -0.25161,-8.69216 0.49747,-13.14387 3.12141,-18.54992 4.16118,-8.57331 11.17382,-12.96 20.71811,-12.96 6.29795,0 10.52666,1.67827 15.19501,6.0305 l 1.52,1.41708 V 380.84378 366.72 h 7.68 7.68 v 39.68 39.68 h -7.04 -7.04 v -3.99542 -3.99543 l -2.64,2.63885 c -5.5121,5.50973 -12.94336,7.74714 -20.37696,6.13504 z m 13.80467,-12.52736 c 1.19146,-0.52934 2.44928,-1.46371 3.61325,-2.684 3.18723,-3.34147 4.40093,-7.31347 4.39142,-14.37168 -0.0125,-9.19366 -2.44928,-14.61117 -7.74172,-17.2104 -1.54925,-0.76086 -2.15082,-0.8696 -4.81066,-0.8696 -2.60797,0 -3.29286,0.11859 -4.81923,0.8345 -2.2264,1.04419 -4.78432,3.57075 -5.86109,5.78924 -1.56451,3.22343 -1.94566,5.40228 -1.9201,10.97626 0.0356,7.75222 1.05668,11.4048 4.15008,14.84538 3.26461,3.63104 8.46036,4.70646 12.99805,2.6903 z m 171.98506,12.69494 c -3.61463,-0.56992 -6.16279,-1.34195 -9.14026,-2.76934 -2.52941,-1.21254 -3.44851,-1.88208 -5.78163,-4.21152 -2.81386,-2.80944 -4.91571,-6.1535 -5.71341,-9.09011 -0.29917,-1.10128 -0.26877,-1.21306 0.36823,-1.35408 1.76665,-0.3912 13.80896,-2.10202 14.21184,-2.01907 0.24972,0.0514 0.72515,0.86499 1.05651,1.80793 1.67433,4.76435 5.34592,6.90957 11.82595,6.90957 6.70794,0 10.56,-2.20627 10.56,-6.04826 0,-1.70665 -0.75616,-2.90051 -2.31126,-3.64899 -0.7528,-0.36233 -3.81674,-1.23296 -6.80874,-1.93475 -10.68432,-2.50602 -16.90554,-4.57021 -20.2089,-6.70528 -3.26652,-2.11126 -5.66355,-5.45014 -6.49174,-9.0425 -0.46176,-2.00304 -0.40701,-6.24156 0.10547,-8.16633 1.56535,-5.87872 6.52624,-10.40608 13.52573,-12.34368 2.24147,-0.62048 3.32954,-0.69677 10.18944,-0.71443 8.85344,-0.0227 11.0767,0.32278 15.36,2.38745 3.03411,1.46253 5.39712,3.45875 7.06022,5.96435 1.27648,1.92308 3.18311,6.13178 2.90416,6.41069 -0.16425,0.16429 -13.14147,2.64781 -13.8694,2.65431 -0.21178,0.003 -0.657,-0.60858 -0.98938,-1.35658 -0.9064,-2.03968 -2.13222,-3.30774 -4.16029,-4.30365 -1.74451,-0.85667 -2.03075,-0.89635 -6.46531,-0.89635 -5.50611,0 -7.37216,0.48042 -8.98032,2.31206 -0.86938,0.99012 -0.98662,1.32618 -0.84115,2.41069 0.35542,2.64992 1.98221,3.39283 13.90608,6.35043 8.42669,2.09018 11.424,3.06788 15.13561,4.937 5.86013,2.95113 8.65812,7.98518 8.19508,14.74438 -0.56157,8.19763 -6.49703,14.54995 -15.87296,16.98781 -2.60333,0.67686 -3.94967,0.81318 -8.98234,0.90944 -3.256,0.0623 -6.76026,-0.0192 -7.78723,-0.18119 z m 54.41491,-0.0359 c -3.58195,-0.68653 -6.97226,-2.84637 -8.2992,-5.2871 -1.87674,-3.452 -1.93322,-4.08618 -2.08294,-23.38762 l -0.13716,-17.68 H 677.09421 673.6 v -5.92 -5.92 h 3.52 3.52 l 0.015,-5.84 0.015,-5.84 7.58509,-4.37738 7.58505,-4.37734 0.0844,10.21734 0.0844,10.21738 h 5.11558 5.11555 v 5.92 5.92 h -5.12 -5.12 v 15.44 c 0,14.05856 0.0505,15.54022 0.56,16.56 1.13856,2.27914 3.4017,2.66099 7.75018,1.30758 l 1.88662,-0.5872 0.17498,1.15981 c 0.50906,3.37491 1.15798,10.32432 0.9895,10.59693 -0.26208,0.42406 -3.9983,1.5136 -6.56179,1.91354 -2.49699,0.38956 -7.57049,0.37075 -9.69232,-0.0359 z M 768,446.86077 c -5.17002,-1.1144 -9.62141,-4.48503 -11.67728,-8.84205 C 754.33405,433.8041 754.24,432.51168 754.24,409.39808 V 388.8 h 7.52 7.52 l 0.008,16.4 c 0.0109,23.35408 0.24774,25.45462 3.1809,28.19827 3.91875,3.66551 10.4696,3.13981 14.87603,-1.19379 3.508,-3.45005 3.68976,-4.77914 3.69305,-27.00448 l 0.003,-16.4 h 7.68 7.68 v 28.64 28.64 h -7.04 -7.04 v -4 c 0,-2.2 -0.036,-3.99968 -0.08,-3.9993 -0.044,0 -1.31008,1.19594 -2.8135,2.65677 -4.60758,4.47706 -10.06714,6.65555 -16.53299,6.59709 -1.54743,-0.0141 -3.74951,-0.2272 -4.89351,-0.47379 z m 163.88016,0.0141 c -8.73526,-1.58176 -14.54765,-6.03277 -18.28077,-13.99907 -1.96457,-4.19229 -2.57907,-7.18128 -2.78627,-13.55293 -0.29901,-9.19459 1.23696,-15.54387 5.13888,-21.24291 3.38899,-4.94983 9.22717,-8.90362 14.928,-10.10973 3.07123,-0.64973 11.35392,-0.46717 14.24,0.31389 3.43926,0.93075 7.52566,3.17718 10.08528,5.54416 5.74499,5.31264 8.46768,12.34768 8.85856,22.88912 l 0.18678,5.03744 -18.99465,0.0826 -18.99463,0.0826 0.0973,1.58124 c 0.22368,3.63597 1.92042,7.21946 4.52867,9.56452 4.26391,3.83363 11.18445,3.90038 14.58116,0.14064 1.10841,-1.22688 2.68195,-4.13367 2.68844,-4.9664 0.003,-0.22 0.0872,-0.4 0.18992,-0.4 0.29319,0 13.64916,2.22473 14.44679,2.40643 l 0.71357,0.16253 -0.65316,1.67552 c -1.8136,4.65244 -5.85724,9.49052 -9.89888,11.84371 -2.31344,1.34694 -5.97916,2.60649 -9.02368,3.10057 -2.75312,0.44676 -9.18809,0.36461 -12.05126,-0.15385 z M 949.12,411.26723 c 0,-3.18825 -1.7311,-7.22166 -3.99514,-9.30861 -1.94022,-1.78841 -3.96278,-2.65817 -6.62425,-2.8486 -6.33584,-0.45332 -11.09879,4.1384 -11.95997,11.52998 l -0.21437,1.84 H 937.72314 949.12 Z m 100.4073,35.61639 c -3.9545,-1.00436 -6.7245,-2.95028 -8.1383,-5.71722 -1.5642,-3.06131 -1.7115,-4.84538 -1.9254,-23.3264 l -0.1992,-17.2 h -3.3122 -3.3122 v -5.92 -5.92 h 3.3528 3.3528 l 0.087,-5.7927 0.087,-5.79274 7.52,-4.3881 7.52,-4.38812 0.16,10.10083 0.16,10.10083 5.2,0.0879 5.2,0.0879 v 5.90416 5.90416 l -5.2,0.0879 -5.2,0.0879 v 15.52 c 0,17.71216 -0.089,17.08538 2.5668,18.09958 1.4094,0.53828 1.5521,0.53479 4.0868,-0.10006 1.4445,-0.36179 2.8491,-0.74784 3.1212,-0.85789 0.4232,-0.1711 0.587,0.66227 1.1328,5.76259 l 0.6382,5.96266 -0.8129,0.32458 c -4.0406,1.6134 -12.3461,2.32188 -16.0856,1.37216 z m 39.0055,0.12547 c -7.2415,-1.05824 -12.8139,-3.96141 -16.701,-8.70096 -1.897,-2.31303 -4.6695,-7.97712 -4.1561,-8.49056 0.1663,-0.16621 13.6644,-2.28656 14.6014,-2.29367 0.3403,-0.003 0.7484,0.63024 1.1934,1.85076 1.7916,4.91363 6.5424,7.45321 13.0527,6.9775 6.1279,-0.44781 9.3968,-2.58682 9.3968,-6.1489 0,-1.65536 -0.7709,-2.85507 -2.3113,-3.59683 -0.7528,-0.36249 -3.8167,-1.23097 -6.8087,-1.92995 -16.6172,-3.88202 -22.0121,-6.43046 -25.2265,-11.91661 -1.7173,-2.93101 -2.337,-8.36515 -1.3687,-12.00198 1.1408,-4.28432 4.8516,-8.70032 8.9576,-10.65994 4.3289,-2.06601 6.2379,-2.37622 14.7576,-2.39817 8.8534,-0.0227 11.0767,0.32278 15.36,2.38745 3.0341,1.46253 5.3971,3.45875 7.0602,5.96435 1.2765,1.92308 3.1831,6.13178 2.9042,6.41069 -0.1643,0.16429 -13.1415,2.64781 -13.8694,2.65431 -0.2118,0.003 -0.657,-0.60858 -0.9894,-1.35658 -0.9064,-2.03968 -2.1322,-3.30774 -4.1603,-4.30365 -1.7445,-0.85667 -2.0307,-0.89635 -6.4653,-0.89635 -5.5061,0 -7.3722,0.48042 -8.9803,2.31206 -0.8694,0.99012 -0.9866,1.32618 -0.8412,2.41069 0.3517,2.62215 2.0928,3.43357 13.2938,6.19543 3.983,0.98211 8.5392,2.21769 10.1248,2.74576 5.9939,1.99616 10.3164,4.92012 12.0897,8.17827 2.6908,4.94397 2.2904,12.13709 -0.9484,17.03779 -2.5318,3.83091 -7.0008,7.08586 -11.6184,8.46218 -4.3967,1.31049 -13.2849,1.84672 -18.3472,1.10691 z M 230.33939,445.2 c 5.47038,-7.72736 19.69672,-28.17021 19.81086,-28.46768 0.11058,-0.28816 -16.22724,-23.71866 -19.20139,-27.53722 -0.25306,-0.32492 1.53954,-0.38812 9.07459,-0.32 l 9.38995,0.0849 4.86053,7.52 c 2.67329,4.136 4.96768,7.52 5.09864,7.52 0.13096,0 2.55239,-3.42 5.38096,-7.6 l 5.14286,-7.6 h 8.89181 c 4.89049,0 8.8918,0.0635 8.8918,0.14102 0,0.0775 -4.00105,5.72954 -8.89123,12.56 -4.89018,6.83044 -9.20233,12.86218 -9.58257,13.40391 l -0.69134,0.98489 10.54257,14.99559 c 5.79841,8.24758 10.54257,15.04035 10.54257,15.0951 0,0.0547 -4.212,0.093 -9.36,0.0851 l -9.36,-0.0144 -5.72802,-8.7856 c -3.15041,-4.83209 -5.76019,-8.78563 -5.79951,-8.78563 -0.0393,0 -2.69473,3.96 -5.90091,8.8 l -5.82941,8.8 h -8.95287 -8.95286 z M 297.6,423.36 v -22.72 h -4.16 -4.16 v -5.92 -5.92 h 4.10992 4.10993 l 0.20819,-5.2 c 0.3192,-7.97293 1.14078,-10.82957 3.88039,-13.49216 2.89355,-2.81219 6.84125,-4.29299 12.17157,-4.5656 5.01812,-0.25664 13.74198,0.98147 14.13517,2.00611 0.14832,0.38656 -1.64867,9.99184 -1.92013,10.26327 -0.0838,0.0838 -0.98493,0 -2.0025,-0.1896 -2.95164,-0.54567 -6.80283,-0.4232 -8.31682,0.26441 -1.99455,0.90589 -2.49026,2.21946 -2.63922,6.99357 l -0.12231,3.92 h 5.6329 5.63291 v 5.92 5.92 h -5.6 -5.6 v 22.72 22.72 h -7.68 -7.68 z m 96.64,-5.92 V 388.8 h 7.04 7.04 v 3.68 c 0,2.024 0.108,3.67376 0.24,3.66614 0.132,-0.008 0.96,-1.03472 1.84,-2.28243 1.88003,-2.6656 3.75757,-4.40192 5.85075,-5.41072 1.82336,-0.87875 6.65075,-1.2064 9.39139,-0.63747 2.10157,0.43629 5.71786,2.08592 5.71786,2.60832 0,0.28787 -3.3415,9.95085 -4.3487,12.57558 -0.17101,0.4456 -0.36298,0.41316 -1.52349,-0.25744 -1.58202,-0.91417 -4.41034,-1.78198 -5.80781,-1.78198 -0.5521,0 -1.78598,0.23008 -2.74192,0.51126 -2.2823,0.6714 -4.41987,2.82266 -5.41325,5.448 -1.53421,4.05482 -1.66387,5.67799 -1.83072,22.92074 l -0.15715,16.24 H 401.88848 394.24 Z M 527.68,406.4 v -39.68 h 8 8 v 39.68 39.68 h -8 -8 z m 28.48,11.04 V 388.8 h 7.04 7.04 v 4.06387 4.06387 l 1.60429,-1.79996 c 3.08605,-3.46247 7.46867,-6.15357 11.61293,-7.13079 2.95878,-0.69766 8.83795,-0.62083 11.87206,0.15514 6.3519,1.62454 10.40198,5.44249 12.27325,11.56979 0.4599,1.50586 0.53837,4.4751 0.63529,24.03808 l 0.1106,22.32 H 600.81421 593.28 v -16.92608 c 0,-22.69107 -0.27706,-24.99798 -3.34144,-27.82266 -4.48032,-4.12982 -13.02202,-2.37939 -16.38406,3.35751 -1.94509,3.31907 -2.34781,8.00944 -2.35168,27.39123 l -0.003,14 h -7.52 -7.52 v -28.64 z m 157.12,0 V 388.8 h 7.18986 7.18982 l 0.0902,3.72048 0.0901,3.72048 1.21622,-1.76742 c 1.82912,-2.65818 4.09204,-4.87095 6.01863,-5.88528 1.62822,-0.85722 1.94985,-0.90826 5.72515,-0.90826 3.59082,0 4.2455,0.0913 6.4,0.89283 3.94954,1.46931 3.84022,0.78752 1.27232,7.93635 -1.22704,3.41594 -2.29155,6.37207 -2.3656,6.56916 -0.0867,0.23056 -0.80006,0.0298 -2.0007,-0.56304 -2.76272,-1.36416 -5.06272,-1.76528 -7.27847,-1.26944 -4.88566,1.09337 -7.16128,5.488 -7.85545,15.1704 -0.17917,2.49907 -0.3272,10.19574 -0.32893,17.10374 l -0.003,12.56 h -7.68 -7.68 v -28.64 z m 104.96,0 V 388.8 h 7.04 7.04 v 3.64211 3.64215 l 2.02384,-1.98439 c 2.42406,-2.37683 6.00758,-4.66441 8.85616,-5.6535 2.5471,-0.88439 8.60054,-1.20378 11.63504,-0.61386 4.00195,0.77799 8.12061,3.50915 10.49402,6.95879 l 0.97283,1.41395 2.12905,-2.04224 c 3.42285,-3.28333 6.63226,-5.21543 10.19808,-6.13943 2.55031,-0.66086 8.58516,-0.66988 11.14375,-0.0166 6.26717,1.60004 10.54685,5.83194 12.20595,12.0698 0.46611,1.75251 0.54835,4.75747 0.65693,24.00329 l 0.12409,22 h -7.68438 -7.68442 l -0.10582,-20.24 c -0.12051,-23.05357 -0.0581,-22.46118 -2.61651,-24.81949 -1.65223,-1.52294 -3.44448,-2.10067 -5.94509,-1.91641 -3.53331,0.26038 -6.86237,2.49673 -8.48582,5.70048 -1.81024,3.57232 -1.85447,4.09222 -1.99303,23.43542 l -0.12781,17.84 H 860.45843 852.8 l -0.003,-19.12 c 0,-11.62214 -0.13213,-19.91945 -0.33318,-21.15865 -0.80432,-4.9568 -3.39341,-7.03296 -8.3345,-6.68327 -3.85709,0.27296 -7.10058,2.38765 -8.79706,5.73552 -1.66236,3.28051 -1.78476,4.76221 -1.95865,23.7064 l -0.1608,17.52 h -7.48669 -7.48669 v -28.64 z m 155.52,0 V 388.8 h 7.04 7.04 v 4.03814 4.03815 l 2.16,-2.20954 c 3.37818,-3.45565 6.9081,-5.57043 11.1072,-6.6544 2.5442,-0.65677 8.9937,-0.65801 11.5456,-0.003 5.0946,1.30919 9.1035,4.22243 11.1294,8.08765 2.1985,4.19443 2.2207,4.46157 2.3708,28.46224 l 0.1345,21.52 h -7.6857 -7.6856 l -0.1264,-19.44 c -0.092,-14.12045 -0.2355,-19.85699 -0.5249,-20.96387 -1.3723,-5.2489 -6.6504,-7.82007 -12.39338,-6.03731 -3.71443,1.15305 -6.40499,3.67635 -7.56554,7.09516 -1.0096,2.97421 -1.18598,6.37821 -1.18598,22.88919 v 16.45683 h -7.68 -7.68 v -28.64 z"
         id="path162" />
      <path
         style="fill:#242d60;stroke-width:0.32"
         d="m 1538.4206,468.92726 c -1.0447,-0.25267 -1.9695,-0.52947 -2.0551,-0.61507 -0.1805,-0.18054 -1.278,-8.89702 -1.1411,-9.06345 0.05,-0.0612 0.8285,0.0468 1.7293,0.24 2.3166,0.49683 6.0869,0.43555 7.675,-0.12474 3.167,-1.11741 4.7678,-3.36925 7.1777,-10.09702 l 1.0936,-3.053 -10.8475,-28.627 c -5.9661,-15.74484 -10.8486,-28.66298 -10.85,-28.70698 0,-0.044 2.3581,-0.08 5.2433,-0.08 4.6979,0 5.269,0.0585 5.4682,0.56 0.1223,0.308 3.1477,8.696 6.7231,18.64 5.9847,16.64483 8.8029,25.00714 8.8029,26.12054 0,0.2417 0.108,0.4377 0.24,0.43552 0.132,-0.003 0.7253,-1.76614 1.3184,-3.92 0.5932,-2.15382 4.1932,-12.4471 8,-22.87392 l 6.9216,-18.95782 4.88,-0.003 c 2.684,0 4.88,0.0634 4.88,0.14352 0,0.38429 -24.0821,64.38595 -25.1754,66.9072 -2.792,6.43872 -5.5499,10.09725 -8.9712,11.90061 -3.2159,1.69517 -7.2122,2.11725 -11.1128,1.17379 z M 1360,428.48 V 388.8 h 4.48 4.48 v 3.47885 3.47888 l 2.665,-2.66499 c 2.9169,-2.91687 5.8009,-4.58551 9.1146,-5.27344 2.8402,-0.5896 9.999,-0.224 12.5404,0.64044 7.9652,2.70935 13.228,9.08663 15.7424,19.07568 0.6314,2.50864 0.721,3.67972 0.721,9.42458 0,5.69488 -0.093,6.92746 -0.7025,9.34637 -2.543,10.08733 -7.5251,16.25753 -15.7769,19.53936 -2.7099,1.07779 -5.2441,1.51843 -8.6028,1.49584 -4.9293,-0.0332 -9.2476,-1.74496 -12.9589,-5.13687 l -1.7823,-1.62892 V 454.3679 468.16 h -4.96 -4.96 z m 27.7279,10.43363 c 2.5947,-0.69085 4.7961,-2.06809 6.8989,-4.31593 2.1664,-2.31597 3.4126,-4.69559 4.4603,-8.5177 0.6122,-2.23299 0.7027,-3.3775 0.7088,-8.96 0.01,-5.63664 -0.078,-6.70534 -0.7018,-8.96 -1.0707,-3.86723 -2.3028,-6.20378 -4.5227,-8.57693 -4.2877,-4.58355 -9.823,-5.77113 -15.2719,-3.27654 -2.6257,1.20208 -6.1947,4.90377 -7.6118,7.89472 -2.0937,4.41913 -2.517,6.69945 -2.517,13.55875 0,6.72198 0.4237,9.10509 2.3511,13.2241 1.1056,2.36278 4.2235,5.66467 6.4044,6.78246 3.0478,1.56208 6.6568,1.98442 9.8017,1.14707 z M 19.04,447.15187 C 11.613025,445.96605 6.2635738,441.72214 4.6412781,435.7289 3.8650864,432.86141 4.0899034,427.44182 5.088584,424.94579 c 1.5471731,-3.86685 4.8164154,-7.12125 9.151416,-9.10985 2.994409,-1.37364 5.253482,-1.88916 12.553854,-2.86468 9.066895,-1.21161 15.985826,-2.62412 17.007692,-3.47216 0.556809,-0.46208 0.288624,-4.70054 -0.4561,-7.20828 -0.937001,-3.15524 -3.659958,-5.2921 -8.062588,-6.32724 -3.128448,-0.73552 -9.795252,-0.47292 -12.289201,0.48407 -3.628907,1.39251 -5.68392,3.65312 -7.046652,7.75165 -0.373187,1.1224 -0.70752,2.0783 -0.742961,2.12422 -0.0922,0.11952 -9.2571781,-1.2351 -9.4166974,-1.39184 -0.2801869,-0.27526 1.0217027,-4.23946 2.1450905,-6.53168 1.4360983,-2.9303 4.4889389,-6.10928 7.2675629,-7.56787 2.505495,-1.31523 6.396525,-2.51962 9.701092,-3.00282 3.633848,-0.53133 13.632418,-0.24512 16.218908,0.46429 2.348736,0.64422 6.175603,2.42064 7.669818,3.56032 1.480048,1.1289 3.159504,3.72058 4.045776,6.24336 0.707625,2.01424 0.730016,2.48397 0.952505,19.98272 0.125315,9.856 0.381107,18.928 0.568429,20.16 0.356134,2.3423 1.204413,5.10275 2.100656,6.83587 l 0.52751,1.0201 -5.202672,-0.088 -5.202675,-0.088 -0.592509,-1.59674 c -0.325878,-0.87817 -0.727248,-2.3072 -0.891932,-3.17558 -0.164685,-0.86838 -0.352637,-1.63206 -0.417671,-1.69712 -0.06503,-0.065 -1.180016,0.6817 -2.477741,1.65942 -3.119942,2.3506 -6.54672,4.10429 -10.055283,5.14599 -2.407976,0.71491 -3.603308,0.86621 -7.504211,0.94976 -2.552,0.0547 -5.072,0.0304 -5.6,-0.0539 z m 11.983076,-7.96761 c 4.629983,-1.0913 8.919823,-4.16327 10.837174,-7.76061 1.447673,-2.7161 1.969523,-5.34275 1.97502,-9.94096 0.0047,-3.95357 0.004,-3.95712 -0.71527,-3.74794 -4.215293,1.22602 -8.757974,2.23591 -13.68,3.04119 -8.444798,1.38163 -10.712516,2.13897 -12.684175,4.23603 -1.714546,1.82358 -2.183235,3.04963 -2.182056,5.70803 8.32e-4,1.84989 0.161331,2.70278 0.70027,3.72102 1.04411,1.97268 3.373432,3.86106 5.654893,4.58442 2.434562,0.7719 7.176496,0.84653 10.094144,0.15882 z M 1176.48,446.88723 c -5.1517,-0.95446 -9.3706,-3.28345 -13.0685,-7.21437 -4.8592,-5.16537 -7.2497,-12.44358 -7.2497,-22.07286 0,-10.02016 2.6486,-17.97603 7.6782,-23.06419 2.5555,-2.58522 5.6068,-4.42019 9.6,-5.77306 2.7585,-0.93456 3.4857,-1.0432 7.8537,-1.17347 5.8218,-0.1736 8.6987,0.31837 12.4663,2.13178 3.3624,1.6184 5.6183,3.47305 7.5224,6.18444 1.7515,2.49402 3.4326,6.26541 3.7167,8.33776 l 0.1899,1.38576 -4.2745,0.62551 c -2.351,0.344 -4.4714,0.62547 -4.7121,0.62547 -0.2579,0 -0.6891,-0.81891 -1.0497,-1.99354 -1.2688,-4.13315 -4.7365,-7.80668 -8.395,-8.89312 -1.9789,-0.58771 -6.2301,-0.60688 -8.3577,-0.0377 -6.3687,1.70377 -10.2696,6.56781 -11.7124,14.60435 -0.6557,3.65238 -0.5143,11.31856 0.2783,15.0863 1.5511,7.37319 5.5868,11.92458 11.8777,13.39546 2.2635,0.52922 6.4409,0.25088 8.5865,-0.57216 4.684,-1.79667 8.0268,-6.34413 8.9194,-12.13392 0.1906,-1.23597 0.2751,-1.33296 1.0489,-1.20317 1.1427,0.19162 8.113,1.10749 8.4287,1.10749 0.826,0 -0.5427,5.13075 -2.3019,8.62966 -3.1968,6.35812 -8.9322,10.6977 -15.9007,12.03098 -2.9112,0.55702 -8.0993,0.55078 -11.1445,-0.0134 z m 53.2259,0.14535 c -6.1198,-1.03268 -11.8675,-4.32919 -15.4861,-8.8816 -1.9866,-2.49936 -4.146,-7.02794 -4.9283,-10.33568 -1.8479,-7.81271 -1.3106,-18.35959 1.2713,-24.95405 2.2893,-5.84707 7.5768,-11.09491 13.6757,-13.57315 4.5905,-1.86525 12.715,-2.37892 17.9138,-1.13255 9.3639,2.24493 16.166,9.00682 18.6674,18.55683 2.001,7.63956 1.2664,19.77364 -1.5766,26.04381 -3.4187,7.53984 -10.6266,12.88317 -19.2431,14.26531 -2.3698,0.38016 -8.0708,0.38628 -10.2941,0.0112 z m 9.2922,-8.13748 c 2.7775,-0.73926 5.0195,-2.00982 7.0174,-3.97699 2.334,-2.29805 3.6124,-4.50765 4.7443,-8.1999 0.8338,-2.71994 0.8833,-3.23015 0.9013,-9.27821 0.017,-5.76656 -0.054,-6.65226 -0.719,-8.94877 -2.3468,-8.10617 -8.2385,-12.97123 -15.7086,-12.97123 -8.9985,0 -15.1231,5.98365 -16.7044,16.32 -0.5357,3.50192 -0.1982,11.04458 0.635,14.18944 1.803,6.80602 6.1308,11.456 11.9832,12.87533 2.2543,0.54669 5.7768,0.54237 7.8508,-0.01 z m 191.0062,8.15504 c -8.8237,-1.60588 -14.3243,-7.75385 -14.3243,-16.01014 0,-7.30554 4.3492,-13.13514 11.8888,-15.93578 2.1938,-0.81488 5.5418,-1.45315 12.1112,-2.30889 5.9043,-0.76912 10.8772,-1.69354 13.84,-2.57277 l 2.16,-0.64099 v -2.32355 c 0,-2.64669 -0.6777,-5.60576 -1.6409,-7.16413 -0.3612,-0.58458 -1.2943,-1.50144 -2.0734,-2.03747 -2.3967,-1.64903 -4.647,-2.26208 -8.999,-2.45175 -8.7018,-0.37926 -12.7785,1.79661 -15.172,8.0977 -0.9729,2.56141 -1.0825,2.71273 -1.8544,2.56073 -0.4511,-0.0889 -2.5459,-0.39203 -4.6551,-0.67376 -2.1091,-0.28169 -3.8672,-0.54467 -3.9069,-0.58438 -0.2553,-0.25523 1.1122,-4.31702 2.2011,-6.53766 2.4261,-4.94823 6.9178,-8.27623 13.5406,-10.03252 3.9157,-1.03843 14.1524,-1.2224 18.4684,-0.33193 5.6947,1.17491 9.7864,3.74096 11.7049,7.34051 2.0342,3.81638 2.0383,3.86042 2.3006,24.23664 0.2234,17.35184 0.2821,18.71974 0.9028,21.01411 0.3651,1.34976 0.9607,3.036 1.3236,3.74723 0.3628,0.71124 0.6597,1.37092 0.6597,1.46592 0,0.095 -2.2937,0.17274 -5.097,0.17274 h -5.097 l -0.6484,-1.73296 c -0.3566,-0.95312 -0.7455,-2.46512 -0.8642,-3.36 -0.1187,-0.89488 -0.281,-1.62704 -0.3606,-1.62704 -0.08,0 -1.3211,0.85446 -2.7588,1.89882 -3.3288,2.41808 -7.152,4.33132 -10.3463,5.17756 -2.8029,0.74256 -10.6153,1.10298 -13.3034,0.61376 z m 13.005,-8.00227 c 3.2415,-0.82905 5.9234,-2.29014 7.9816,-4.34838 3.2113,-3.21127 4.2974,-6.26115 4.5962,-12.90634 l 0.1927,-4.28685 -0.7699,0.1657 c -0.4234,0.0911 -2.0144,0.53504 -3.5354,0.9865 -1.521,0.45142 -5.841,1.33545 -9.6,1.96454 -10.876,1.82013 -12.9871,2.72256 -14.7865,6.3207 -2.5509,5.1008 0.2606,10.70554 6.1694,12.29869 2.3079,0.62231 6.9175,0.53034 9.7519,-0.19456 z M 66.24,417.44 V 388.8 h 4.32 4.32 v 3.9129 3.91292 l 1.024243,-1.27292 c 2.60841,-3.24167 6.117325,-5.70852 9.855757,-6.9288 1.580538,-0.51591 3.155766,-0.71309 6.56,-0.82116 5.221165,-0.16572 7.612813,0.26138 11.2445,2.00816 4.44666,2.13876 7.07304,5.41767 8.4973,10.60842 0.66307,2.41664 0.69059,3.22752 0.82056,24.18048 l 0.13448,21.68 H 108.02842 103.04 l -0.003,-19.28 c -0.002,-11.96653 -0.13031,-20.06829 -0.33956,-21.35808 -0.68216,-4.20464 -2.63831,-6.90493 -6.180446,-8.53155 -1.746615,-0.80208 -2.319677,-0.89955 -5.317578,-0.90467 -4.085891,-0.007 -6.724899,0.78304 -9.540726,2.85593 -3.23848,2.38403 -4.797722,5.61197 -5.492218,11.36999 -0.183616,1.52233 -0.327056,9.97814 -0.327056,19.28 V 446.08 h -4.8 -4.8 v -28.64 z m 1204.48,0 V 388.8 h 4.32 4.32 v 3.888 3.88803 l 0.9133,-1.26083 c 2.3854,-3.29286 7.5432,-6.63194 11.5024,-7.44637 2.4762,-0.50937 8.5531,-0.43654 10.7224,0.12851 4.1414,1.07866 7.634,3.74656 9.5082,7.26288 l 1.0463,1.96311 0.6437,-0.93168 c 1.4081,-2.03821 5.2475,-5.44179 7.4284,-6.58519 3.1526,-1.65286 5.5212,-2.18646 9.7057,-2.18646 4.1783,0 6.2271,0.37622 8.8946,1.63325 3.006,1.41661 5.0098,3.40947 6.5107,6.4751 2.1793,4.45114 2.2443,5.30154 2.2443,29.37357 V 446.08 h -4.8 -4.8 v -18.8 c 0,-23.76032 -0.2003,-25.668 -2.939,-28.46141 -3.2239,-3.28835 -8.949,-3.90041 -13.8835,-1.48425 -2.1134,1.03488 -5.0301,4.00832 -5.8826,5.99708 -1.5093,3.52109 -1.6123,5.08506 -1.6123,24.49508 V 446.08 h -4.96 -4.96 v -20.41277 c 0,-17.08339 -0.078,-20.71238 -0.4784,-22.24976 -1.3161,-5.05277 -3.8585,-7.21536 -8.8288,-7.50979 -3.8909,-0.2305 -7.4124,1.02381 -10.2032,3.6343 -1.9129,1.78928 -3.0157,3.82925 -3.8971,7.20848 -0.6739,2.58397 -0.7065,3.40871 -0.8301,21.00954 l -0.1286,18.32 h -4.7769 -4.7769 v -28.64 z m 207.04,0 V 388.8 h 4.48 4.48 v 3.65715 3.65712 l 2.64,-2.62733 c 4.4066,-4.3855 8.4752,-5.95366 15.4688,-5.9622 8.3464,-0.0102 14.6574,3.15299 17.3982,8.72028 2.118,4.30234 2.0398,3.30557 2.1703,27.67498 l 0.1187,22.16 h -4.7947 -4.7947 L 1514.8017,426 c -0.1362,-21.88986 -0.1506,-22.06931 -2.0386,-25.29162 -2.2625,-3.86131 -8.4972,-5.81945 -13.9812,-4.39104 -4.1298,1.07565 -7.8718,3.91517 -9.196,6.97808 -1.7403,4.0256 -1.6999,3.49748 -1.8234,23.82458 l -0.1153,18.96 h -4.9436 -4.9436 z m -392.32,-84.19197 c -17.3753,-0.98224 -29.5863,-2.89312 -43.04,-6.7352 -32.3915,-9.25035 -59.572,-28.86581 -77.75373,-56.11283 -13.36566,-20.02971 -21.58534,-42.85597 -25.26835,-70.17068 -3.9016,-28.93591 -2.12547,-63.75404 4.59917,-90.15944 6.59069,-25.879477 19.55158,-48.947394 38.26291,-68.100664 18.3086,-18.74108 38.3244,-30.115905 64.2811,-36.5306208 29.2841,-7.2370061 64.4388,-7.2308923 93.3511,0.016234 36.3083,9.1009788 66.9011,31.2663858 86.1294,62.4032238 9.7857,15.846263 16.7292,34.103377 20.6822,54.381947 5.8355,29.9351 5.4163,66.17526 -1.0988,94.99753 -9.0065,39.84345 -29.849,71.1034 -61.105,91.64634 -20.7909,13.66474 -45.1338,21.55795 -73.76,23.91677 -4.1608,0.34285 -21.653,0.65241 -25.28,0.44739 z m 20.33,-66.21541 c 16.5023,-2.16054 30.4272,-8.98982 42.07,-20.63262 6.159,-6.15899 10.3641,-12.09117 14.404,-20.32 6.2332,-12.69638 9.7381,-27.03653 11.2236,-45.92 0.4915,-6.24929 0.4949,-23.00593 0.01,-29.12 -2.3497,-29.37469 -9.9769,-49.44963 -24.291,-63.934602 -11.9501,-12.092723 -25.7014,-18.645046 -43.9024,-20.91895 -4.3794,-0.547133 -17.3875,-0.546563 -21.76,9.6e-4 -15.1187,1.893104 -28.5875,7.479514 -38.9811,16.168115 -3.3435,2.794931 -9.1075,8.769747 -11.4653,11.884487 -10.9274,14.4359 -16.913,33.48386 -18.7034,59.52 -0.4861,7.0701 -0.2025,25.21093 0.4929,31.52 3.4318,31.13464 13.4123,51.92913 32.0378,66.75086 11.3609,9.04069 24.7175,14.18014 40.2627,15.49262 4.4005,0.37153 13.942,0.11982 18.6064,-0.49086 z M 0.73464512,326.1367 C 1.1225903,325.1119 29.376,252.53796 63.52,164.86126 L 125.6,5.449087 163.00282,5.5245437 200.40564,5.6 234.94101,91.84 c 18.99446,47.432 48.03999,119.972 64.54563,161.2 L 329.4969,328 288.82845,327.99597 248.16,327.9919 234.68174,292.87596 221.20348,257.76 H 163.17943 105.15539 L 92.424336,292.8 c -7.002077,19.272 -12.734038,35.076 -12.737693,35.12 -0.0036,0.044 -17.928054,0.08 -39.831997,0.08 H 0.02929026 Z M 196.2497,193.04 c 0.21996,-0.41416 -33.83467,-91.5814 -34.05936,-91.17989 -0.22138,0.39559 -33.23034,91.08701 -33.23034,91.29966 0,0.23539 67.16456,0.11584 67.2897,-0.11977 z M 341.44,166.72 V 5.44 h 35.28541 35.28537 l 58.71463,95.79825 58.71459,95.79826 0.0805,-95.79826 L 529.60106,5.44 H 564.80051 600 V 166.72137 328.00272 L 563.76339,327.92138 527.52678,327.84 469.76339,234.39134 412,140.94268 411.91946,234.47134 411.83891,328 H 376.63946 341.44 Z M 640,166.73136 V 5.44 l 67.44,0.00163 c 72.86586,0.00179 76.61955,0.0747 91.6,1.7794829 12.84998,1.4623344 22.21776,3.6644321 32.32,7.5975171 4.40707,1.715792 14.02198,6.574721 18.18054,9.187586 29.59716,18.596223 50.88986,52.658901 58.60576,93.753774 2.99127,15.93137 4.26192,31.21689 4.26944,51.36 0.007,19.48808 -1.15568,32.61529 -4.26662,48.16 -7.39229,36.93744 -27.15232,70.16753 -51.98912,87.42915 -8.6623,6.02033 -19.73914,11.44868 -31.52,15.44678 -11.20006,3.80103 -20.95085,5.65946 -38.08,7.25779 -2.8592,0.26682 -24.32931,0.40688 -75.28,0.49111 L 640,328.02267 V 166.73133 Z m 132.68451,96.61788 c 14.61018,-0.84555 23.16519,-2.68763 31.25219,-6.7293 12.30512,-6.14977 19.06813,-14.85796 24.71127,-31.81869 4.84557,-14.56364 6.91344,-31.8904 6.91261,-57.92124 0,-31.04688 -2.87047,-48.74484 -10.42861,-64.32 C 817.41133,86.650026 806.0015,77.405325 788.82502,73.142656 779.4199,70.808602 766.30931,70.024016 735.68,69.962269 l -20.96,-0.04226 -0.0805,96.880001 -0.0806,96.88 h 26.20503 c 14.41277,0 28.77702,-0.14885 31.92054,-0.33077 z M 1279.04,166.72 V 5.44 l 76.88,0.00443 c 45.2771,0.00262 79.5108,0.1326774 83.28,0.3164179 38.4616,1.8749392 58.6403,7.6857851 75.3934,21.7110741 11.4413,9.578309 21.4686,25.006098 26.1777,40.276575 5.4677,17.729923 5.9506,38.691533 1.3112,56.912353 -5.3393,20.96925 -17.7816,38.31051 -35.5968,49.61213 -8.3785,5.31518 -20.4204,10.43902 -30.4388,12.95169 -1.5434,0.3871 -2.6893,0.80519 -2.5464,0.92909 0.1428,0.1239 1.9965,1.53669 4.1192,3.13953 14.9166,11.26329 25.7143,23.65473 41.8845,48.06671 2.8563,4.312 12.5413,19.576 21.5223,33.92 8.981,14.344 20.3703,32.524 25.3096,40.4 l 8.9805,14.32 h -44.5957 -44.5956 l -27.3309,-40.72 c -32.1428,-47.88912 -35.6429,-52.99361 -43.9391,-64.08 -7.0338,-9.39947 -11.5089,-14.02399 -17.2046,-17.77931 -7.7251,-5.09328 -17.7971,-7.016 -36.7705,-7.01939 l -7.28,-0.001 v 64.8 64.8 h -37.28 -37.28 z m 148.64,-30.68272 c 18.7411,-1.39004 23.7956,-2.72172 30.4083,-8.01157 3.6942,-2.95519 7.305,-8.46243 8.7558,-13.35425 2.2211,-7.48959 2.1919,-17.643009 -0.07,-24.277598 -1.4596,-4.281491 -3.0218,-6.794681 -6.4333,-10.349769 -3.4735,-3.619623 -7.0853,-5.852122 -12.1808,-7.52905 -7.0578,-2.322733 -11.0403,-2.500217 -57.28,-2.552816 l -37.12,-0.04223 -0.082,33.388873 -0.082,33.38887 34.6415,-0.15222 c 20.7423,-0.0911 36.5674,-0.29507 39.4415,-0.50824 z"
         id="path160" />
    </g>
  </g>
</svg>
