<?xml version="1.0" encoding="iso-8859-1"?>
<!-- Generator: Adobe Illustrator 13.0.0, SVG Export Plug-In . SVG Version: 6.00 Build 14948)  -->
<!DOCTYPE svg PUBLIC "-//W3C//DTD SVG 1.1//EN" "http://www.w3.org/Graphics/SVG/1.1/DTD/svg11.dtd">
<svg version="1.1" id="Layer_1" xmlns="http://www.w3.org/2000/svg" xmlns:xlink="http://www.w3.org/1999/xlink" x="0px" y="0px"
	 width="100px" height="100px" viewBox="0 0 100 100" style="enable-background:new 0 0 100 100;" xml:space="preserve">
<g id="Layer_1_1_">
	<circle cx="49.5" cy="49.5" r="47.584"/>
	<g>
		<defs>
			<path id="SVGID_1_" d="M49.738,85.357c-19.595,0-35.536-15.942-35.536-35.54c0-19.594,15.941-35.535,35.536-35.535
				c19.593,0,35.536,15.941,35.536,35.535C85.273,69.417,69.333,85.357,49.738,85.357L49.738,85.357z"/>
		</defs>
		<clipPath id="SVGID_2_">
			<use xlink:href="#SVGID_1_"  style="overflow:visible;"/>
		</clipPath>
		<path style="clip-path:url(#SVGID_2_);fill:#FFFFFF;stroke:#000000;stroke-width:2.0048;" d="M76.819,17.122
			c-9.947,0-19.896,0-29.843,0c-1.192,0-2.385,0-3.577,0c-1.329,0-2.806,1.197-3.903,1.939c-1.688,1.125-3.477,2.116-5.134,3.286
			c-1.689,1.126-3.459,2.138-5.134,3.286c-1.072,0.693-1.972,1.508-1.972,2.91c0,0.282,0,0.563,0,0.845c0,1.703,0,3.406,0,5.108
			c0,11.813,0,23.625,0,35.438c0,1.424,0,2.85,0,4.275c0,1.977,1.289,3.359,3.3,3.359c4.707,0,9.413,0,14.12,0
			c5.679,0,11.357,0,17.036,0c1.479,0,2.71,0.117,4.02-0.756c0.844-0.563,1.729-1.066,2.563-1.641
			c1.676-1.146,3.46-2.137,5.134-3.287c0.845-0.563,1.73-1.066,2.566-1.643c0.941-0.627,2.11-1.15,2.92-1.943
			c1.104-1.078,0.902-2.613,0.902-4.01c0-2.055,0-4.109,0-6.164c0-6.254,0-12.508,0-18.762c0-4.869,0-9.737,0-14.606
			C79.819,22.264,80.667,17.122,76.819,17.122"/>
		<path style="clip-path:url(#SVGID_2_);fill:#FFFFFF;stroke:#000000;stroke-width:2.0048;" d="M66.179,75.055
			c0,1.664-1.343,3.014-3,3.014H29.757c-1.657,0-3-1.35-3-3.014V28.796c0-1.665,1.343-3.015,3-3.015h33.421c1.657,0,3,1.35,3,3.015
			V75.055z"/>
		
			<line style="clip-path:url(#SVGID_2_);fill:none;stroke:#000000;stroke-width:2;stroke-linecap:round;" x1="65.5" y1="26.943" x2="80.346" y2="19.75"/>
		
			<rect x="31.266" y="30.854" style="clip-path:url(#SVGID_2_);stroke:#000000;stroke-width:2.1217;" width="29.666" height="18.667"/>
		<path style="clip-path:url(#SVGID_2_);fill:#FFFFFF;stroke:#000000;stroke-linecap:round;stroke-linejoin:round;" d="
			M56.342,34.907v-1.412c0-0.677-0.549-1.225-1.225-1.225h-8.779c-0.676,0-1.225,0.548-1.225,1.225v1.327H34.928
			c-0.688,0-1.247,0.585-1.247,1.307v12.085c0,0.722,0.558,1.307,1.247,1.307h20.984c0.688,0,1.246-0.585,1.246-1.307V36.128
			C57.158,35.566,56.816,35.09,56.342,34.907z"/>
		
			<rect x="31.266" y="54.02" style="clip-path:url(#SVGID_2_);fill:#FFFFFF;stroke:#000000;stroke-width:2.1962;" width="29.666" height="20"/>
		
			<rect x="23.349" y="38.771" style="clip-path:url(#SVGID_2_);fill:#FFFFFF;stroke:#000000;stroke-width:2.1217;" width="29.666" height="18.667"/>
		<path style="clip-path:url(#SVGID_2_);fill:#FFFFFF;stroke:#000000;stroke-width:1.6456;stroke-linecap:round;" d="M43.182,47.493
			c0,0.996-1.343,1.805-3,1.805h-4.25c-1.657,0-3-0.809-3-1.805"/>
		<path style="clip-path:url(#SVGID_2_);fill:#FFFFFF;stroke:#000000;stroke-width:1.6456;stroke-linecap:round;" d="M51.422,63.922
			c0,0.996-1.344,1.805-3,1.805h-4.25c-1.657,0-3-0.809-3-1.805"/>
		
			<polygon style="clip-path:url(#SVGID_2_);fill:#FFFFFF;stroke:#000000;stroke-width:1.6456;stroke-linecap:round;stroke-linejoin:round;" points="
			53.088,46.557 61.19,39.687 61.19,49.335 53.088,56.391 		"/>
	</g>
	<path style="fill:#FFFFFF;" d="M49.738,6.318c24.028,0,43.505,19.478,43.505,43.505c0,24.026-19.478,43.505-43.505,43.505
		c-24.027,0-43.505-19.479-43.505-43.505C6.233,25.796,25.71,6.318,49.738,6.318 M49.738,11.756
		c-20.991,0-38.066,17.077-38.066,38.067c0,20.989,17.076,38.067,38.066,38.067c20.991,0,38.067-17.078,38.067-38.067
		C87.805,28.833,70.729,11.756,49.738,11.756L49.738,11.756z"/>
</g>
</svg>
