<?xml version="1.0" encoding="UTF-8" standalone="no"?>
<!-- Created with Inkscape (http://www.inkscape.org/) -->

<svg
   version="1.1"
   id="svg2"
   width="369.98279"
   height="135.36572"
   viewBox="0 0 369.98279 135.36572"
   sodipodi:docname="avantes.svg"
   inkscape:version="1.2-alpha1 (b6a15bbbed, 2022-02-23)"
   xmlns:inkscape="http://www.inkscape.org/namespaces/inkscape"
   xmlns:sodipodi="http://sodipodi.sourceforge.net/DTD/sodipodi-0.dtd"
   xmlns="http://www.w3.org/2000/svg"
   xmlns:svg="http://www.w3.org/2000/svg">
  <defs
     id="defs6">
    <clipPath
       clipPathUnits="userSpaceOnUse"
       id="clipPath1002">
      <rect
         style="fill:#c0c1c5"
         id="rect1004"
         width="373"
         height="118.99008"
         x="0"
         y="-0.30826446" />
    </clipPath>
  </defs>
  <sodipodi:namedview
     id="namedview4"
     pagecolor="#ffffff"
     bordercolor="#000000"
     borderopacity="0.25"
     inkscape:pageshadow="2"
     inkscape:pageopacity="0.0"
     inkscape:pagecheckerboard="0"
     inkscape:deskcolor="#d1d1d1"
     showgrid="false"
     inkscape:zoom="1.1469158"
     inkscape:cx="172.63691"
     inkscape:cy="93.293682"
     inkscape:window-width="1920"
     inkscape:window-height="1009"
     inkscape:window-x="1912"
     inkscape:window-y="-8"
     inkscape:window-maximized="1"
     inkscape:current-layer="g8" />
  <g
     inkscape:groupmode="layer"
     inkscape:label="Image"
     id="g8"
     transform="translate(-0.23876591,-0.44253016)">
    <g
       id="g4096"
       transform="translate(-13.721488,-213.31902)">
      <path
         style="fill:#e20813"
         d="m 81.936391,301.41744 c -3.082607,-12.80959 -7.783803,-32.29017 -10.447104,-43.29017 -2.6633,-11 -4.711056,-20.16499 -4.550567,-20.36664 0.160488,-0.20165 3.651319,-1.14759 7.757403,-2.1021 l 7.465607,-1.73548 1.488349,6.10211 c 0.818592,3.35616 4.061553,16.80964 7.206582,29.89662 3.145028,13.08698 5.839736,23.66198 5.988239,23.5 0.148504,-0.16198 2.578123,-4.7069 5.39915,-10.09982 16.99887,-32.4965 36.897,-52.91769 61.19854,-62.80727 6.70821,-2.72993 22.84875,-7.35463 23.34257,-6.68828 0.40552,0.54721 5.54542,13.81203 5.54542,14.31138 0,0.26921 -0.94612,0.48948 -2.1025,0.48948 -3.58073,0 -19.8321,5.86751 -28.31789,10.2241 -6.32514,3.24731 -10.28046,6.33341 -18.21489,14.21197 -15.35257,15.24449 -27.85266,35.59449 -37.36977,60.83753 l -3.85554,10.2264 -7.464433,0.29017 -7.464427,0.29017 z"
         id="path4100" />
      <path
         style="fill:#0e2386"
         d="m 14.90211,343.69835 c 2.966242,-9.98842 2.818666,-9.87989 5.359989,-3.94152 l 2.298272,5.37044 2.21792,-4.92502 c 1.219855,-2.70876 2.458235,-4.50876 2.751955,-4 1.208013,2.09243 3.967044,11.59164 3.501882,12.0568 -0.276221,0.27623 -1.031249,-1.21543 -1.67784,-3.31478 -0.646592,-2.09935 -1.388095,-4.47273 -1.647785,-5.27419 -0.283957,-0.87634 -1.404059,0.51878 -2.810053,3.5 l -2.33789,4.95719 -2.274636,-5 -2.274636,-5 -1.589354,4.67928 c -2.226916,6.55636 -3.405694,7.24895 -1.517824,0.8918 z m 21.678469,4.26664 c -0.817726,-0.32996 -1.25,-2.72339 -1.25,-6.92105 v -6.41667 l 4.75,0.1681 c 4.351823,0.15401 4.43565,0.20099 1,0.56037 -3.169717,0.33156 -3.75,0.7595 -3.75,2.76547 0,1.8213 0.639537,2.4701 2.75,2.78981 l 2.75,0.41659 -2.75,0.14983 c -2.226711,0.12132 -2.75,0.62555 -2.75,2.64983 0,2.19048 0.433333,2.5 3.5,2.5 1.925,0 3.5,0.45 3.5,1 0,1.01744 -5.474274,1.25599 -7.75,0.33772 z M 47.532,347.54131 c 0.297715,-0.77772 1.366519,-4.03374 2.37512,-7.2356 l 1.83382,-5.82157 2.388978,5.32157 2.388979,5.32156 2.210594,-4.97042 c 1.215827,-2.73374 2.463539,-4.53374 2.772693,-4 1.223751,2.11272 4.002021,11.63013 3.532163,12.09999 -0.275,0.275 -1.29849,-1.89166 -2.274421,-4.81479 l -1.774422,-5.31478 -2.187576,4.98754 -2.187576,4.98753 -2.473608,-4.86725 -2.473607,-4.86725 -1.303453,4.65548 c -0.716899,2.56051 -1.768197,4.9427 -2.336217,5.29376 -0.594422,0.36737 -0.803018,0.0381 -0.491467,-0.77577 z m 23.048579,0.44447 c -0.815566,-0.34265 -1.25,-2.75527 -1.25,-6.94184 v -6.41667 h 3.428571 c 4.183893,0 6.969727,2.38726 5.654239,4.84527 -0.532916,0.99576 -0.545601,2.36328 -0.03046,3.28379 1.680919,3.00364 -4.014464,6.82091 -7.80235,5.22945 z m 6.75,-3.33946 c 0,-1.26673 -0.880863,-2.20203 -2.443165,-2.59414 -3.039782,-0.76294 -4.556835,0.114 -4.556835,2.63411 0,1.5516 0.70214,1.94098 3.5,1.94098 2.822113,0 3.5,-0.38367 3.5,-1.98095 z m -0.180449,-6.26905 c -0.244918,-1.7245 -1.078605,-2.32319 -3.569551,-2.56336 -2.902918,-0.27989 -3.25,-0.0396 -3.25,2.25 0,2.2724 0.405169,2.56336 3.569551,2.56336 3.129772,0 3.530181,-0.27721 3.25,-2.25 z m 6.180449,3.05449 v -6.80449 l 4.75,0.17471 4.75,0.1747 -4.25,0.3828 c -3.735507,0.33645 -4.25,0.67847 -4.25,2.82529 0,2.0647 0.502695,2.4608 3.25,2.56081 l 3.25,0.11832 -3,0.63812 c -2.099761,0.44663 -3.095891,1.31136 -3.319551,2.88168 -0.279934,1.96542 0.122989,2.24357 3.25,2.24357 1.963253,0 3.569551,0.46823 3.569551,1.04051 0,0.5866 -1.744961,0.93755 -4,0.80449 l -4,-0.23602 z m 13.160037,0.44551 -0.160037,-7.25 h 3.3 c 1.815001,0 3.840001,0.54 4.500001,1.2 1.69888,1.69888 1.48915,5.47506 -0.34313,6.17817 -1.23817,0.47514 -1.32097,1.00725 -0.41898,2.69264 0.61828,1.15527 0.87954,2.34509 0.58057,2.64406 -0.29897,0.29897 -1.08266,-0.63957 -1.74154,-2.08564 -1.72982,-3.79655 -4.648978,-3.44492 -5.153525,0.62077 -0.221827,1.7875 -0.475339,-0.0125 -0.563359,-4 z m 7.339964,-3.25 c 0,-2.08957 -0.53356,-2.55145 -3.25,-2.81336 -3.040528,-0.29316 -3.250001,-0.11183 -3.250001,2.81336 0,2.92519 0.209473,3.10652 3.250001,2.81336 2.71644,-0.26191 3.25,-0.72379 3.25,-2.81336 z m 16.5,9.30602 c -4.12526,-1.47433 -5.46609,-8.66925 -2.17126,-11.65103 4.12626,-3.73422 11.18715,-0.50945 11.15595,5.09501 -0.0184,3.30935 -0.78358,4.58156 -3.66895,6.1003 -2.343,1.23326 -2.98592,1.28837 -5.31574,0.45572 z m 6.75,-3.09812 c 1.67077,-2.12543 1.57536,-4.29836 -0.3067,-6.98539 -1.84336,-2.63177 -5.06803,-2.8721 -7.61456,-0.56752 -2.41686,2.18723 -2.31973,5.85402 0.22241,8.39616 2.26563,2.26563 5.53663,1.90736 7.69885,-0.84325 z m 39.57814,-3.2079 c -0.004,-4.125 0.17343,-6.0375 0.39526,-4.25 0.37699,3.03786 0.65614,3.25 4.2766,3.25 3.62046,0 3.89961,-0.21214 4.2766,-3.25 0.22183,-1.7875 0.3997,0.125 0.39526,4.25 -0.004,4.125 -0.18458,5.8125 -0.40033,3.75 -0.37882,-3.62147 -0.52522,-3.75 -4.27153,-3.75 -3.74631,0 -3.89271,0.12853 -4.27153,3.75 -0.21575,2.0625 -0.39589,0.375 -0.40033,-3.75 z m 15.92186,6.33772 c -0.81773,-0.32996 -1.25,-2.72339 -1.25,-6.92105 v -6.41667 l 4.75,0.17471 4.75,0.1747 -4.25,0.3828 c -3.73551,0.33645 -4.25,0.67847 -4.25,2.82529 0,2.0647 0.5027,2.4608 3.25,2.56081 l 3.25,0.11832 -3,0.63812 c -2.09976,0.44663 -3.09589,1.31136 -3.31955,2.88168 -0.28687,2.01408 0.10276,2.24357 3.80902,2.24357 2.49773,0 3.88443,0.39501 3.51053,1 -0.63577,1.0287 -5.03025,1.23341 -7.25,0.33772 z m 18.93498,-5.79593 -0.18498,-6.95821 4.5,4.41642 4.5,4.41642 v -4.70821 c 0,-2.58952 0.45,-4.70821 1,-4.70821 0.56735,0 1,2.90414 1,6.71241 v 6.71241 l -4.94234,-4.86803 -4.94235,-4.86803 -0.37267,5.40562 c -0.35098,5.09099 -0.38344,5.00062 -0.55766,-1.55259 z m 18.97506,3.26537 c -0.088,-2.03106 -1.10449,-5.29356 -2.25882,-7.25 -1.15432,-1.95644 -1.82271,-3.55716 -1.4853,-3.55716 0.33741,0 1.45828,1.38917 2.49082,3.08705 l 1.87735,3.08704 1.82356,-3.08704 c 1.00296,-1.69788 2.18219,-3.08705 2.6205,-3.08705 0.43832,0 -0.30062,1.73864 -1.64208,3.86365 -1.34146,2.12501 -2.62509,5.38751 -2.85251,7.25 l -0.41349,3.38635 z m 10.02494,-3.26537 -0.18498,-6.95821 4.28785,4.20821 c 2.35832,2.31452 4.65363,4.20821 5.1007,4.20821 0.44706,0 0.65178,-2.025 0.45494,-4.5 -0.19685,-2.475 -0.0172,-4.5 0.3993,-4.5 0.41647,0 0.75721,3.02058 0.75721,6.71241 v 6.71241 l -4.94234,-4.86803 -4.94235,-4.86803 -0.37267,5.40562 c -0.35098,5.09099 -0.38344,5.00062 -0.55766,-1.55259 z m 17.36534,4.09944 c -3.06091,-3.06091 -3.28067,-6.91088 -0.55032,-9.64123 4.2528,-4.2528 11,-1.40818 11,4.63761 0,3.75749 -1.74199,6.07027 -5.19968,6.90343 -2.09348,0.50445 -3.27233,0.0778 -5.25,-1.89981 z m 7.22717,-0.19793 c 2.66394,-1.8659 2.97685,-6.5461 0.59679,-8.92616 -4.15392,-4.15393 -10.76417,1.33828 -8.25055,6.85507 0.99176,2.17667 1.94863,2.86192 4.90376,3.51179 0.29013,0.0638 1.52763,-0.58452 2.75,-1.4407 z m 6.42393,1.47074 c 0.29772,-0.77772 1.34814,-3.97544 2.33428,-7.10603 l 1.79297,-5.69199 2.43812,5.19199 2.43812,5.19199 2.2023,-4.97042 c 1.21126,-2.73374 2.45524,-4.53374 2.7644,-4 1.22375,2.11272 4.00202,11.63013 3.53216,12.09999 -0.275,0.275 -1.29849,-1.89166 -2.27442,-4.81479 l -1.77442,-5.31478 -2.18758,4.98754 -2.18758,4.98753 -2.4736,-4.86725 -2.47361,-4.86725 -1.30345,4.65548 c -0.7169,2.56051 -1.7682,4.9427 -2.33622,5.29376 -0.59442,0.36737 -0.80302,0.0381 -0.49147,-0.77577 z m 22.13479,-5.91404 c 0,-4.125 0.17651,-5.8125 0.39226,-3.75 0.21574,2.0625 0.21574,5.4375 0,7.5 -0.21575,2.0625 -0.39226,0.375 -0.39226,-3.75 z m 9.66379,6.30602 c -4.12526,-1.47433 -5.46609,-8.66925 -2.17126,-11.65103 2.03554,-1.84214 5.87904,-2.14368 8.17126,-0.64107 1.0647,0.69793 0.54897,0.80074 -1.77714,0.35425 -5.48349,-1.05252 -8.89766,3.63392 -6.25064,8.57992 1.34458,2.51237 3.55648,3.1701 6.78646,2.01803 2.56655,-0.91544 2.61756,-0.88178 0.80019,0.52805 -2.01873,1.56603 -3.03382,1.71428 -5.55887,0.81185 z m 22,0 c -4.12526,-1.47433 -5.46609,-8.66925 -2.17126,-11.65103 1.90699,-1.7258 6.68305,-2.25394 7.55943,-0.83593 0.27841,0.45048 -0.74746,0.63505 -2.27972,0.41016 -3.52372,-0.51717 -6.10845,1.94515 -6.10845,5.81916 0,3.47966 3.79892,6.4676 6.95104,5.46716 2.50963,-0.79653 2.66213,-3.05902 0.29896,-4.43544 -1.56287,-0.91029 -1.5094,-1.02253 0.5,-1.04969 1.73299,-0.0234 2.25,0.53596 2.25,2.43441 0,3.36796 -3.28315,5.16957 -7,3.8412 z m 17.46784,-2.36821 c -1.86716,-3.6107 -5.15587,-3.72597 -4.65498,-0.16316 0.17207,1.22394 -0.16543,2.22535 -0.75,2.22535 -0.64147,0 -1.06286,-2.57706 -1.06286,-6.5 v -6.5 h 3.42857 c 3.09639,0 6.57143,2.03535 6.57143,3.84892 0,0.38834 -0.67676,1.67228 -1.50391,2.8532 -1.12479,1.60587 -1.25707,2.79634 -0.52475,4.7225 1.34548,3.53887 0.42397,3.2405 -1.5035,-0.48681 z m 1.39277,-5.26985 c 1.64741,-1.98502 -0.86821,-4.94621 -3.83387,-4.51293 -1.78912,0.26139 -2.38925,1.01124 -2.47699,3.09497 -0.0985,2.33994 0.28093,2.75 2.54478,2.75 1.46332,0 3.15806,-0.59942 3.76608,-1.33204 z m 9.37485,7.2955 c -4.96527,-1.99477 -4.6954,-11.30795 0.36447,-12.5779 6.06289,-1.52169 10.61426,3.29069 8.46316,8.9485 -0.78444,2.06324 -4.97162,5.08474 -6.37819,4.60255 -0.10169,-0.0349 -1.20395,-0.47278 -2.44944,-0.97315 z m 5.54203,-1.52016 c 4.46553,-3.12778 2.26573,-10.4433 -3.14032,-10.4433 -4.53128,0 -6.31438,7.71183 -2.41466,10.4433 1.22237,0.85618 2.47225,1.5567 2.77749,1.5567 0.30524,0 1.55512,-0.70052 2.77749,-1.5567 z m 10.44502,1 c -1.89076,-1.32434 -2.20056,-2.40653 -2.07549,-7.25 l 0.14702,-5.6933 0.61865,5.79616 c 0.53952,5.05491 1.93422,7.67321 4.08731,7.67321 2.15309,0 3.54779,-2.6183 4.08731,-7.67321 l 0.61865,-5.79616 0.14702,5.6933 c 0.12507,4.84347 -0.18473,5.92566 -2.07549,7.25 -1.22237,0.85618 -2.47225,1.5567 -2.77749,1.5567 -0.30524,0 -1.55512,-0.70052 -2.77749,-1.5567 z m 12.8958,-5.1933 -0.11831,-7.25 h 3.42857 c 3.11948,0 6.57143,2.03831 6.57143,3.8803 0,1.85214 -2.76999,4.02341 -5.49525,4.30748 -2.41569,0.25181 -3.1184,0.8927 -3.63169,3.31222 -0.42124,1.98564 -0.67643,0.54864 -0.75475,-4.25 z m 7.38169,-3.25 c 0,-2.11111 -0.46667,-2.5 -3,-2.5 -2.54741,0 -3.04874,0.42526 -3.32306,2.81881 -0.30289,2.64274 -0.1155,2.79889 3,2.5 2.79292,-0.26795 3.32306,-0.71765 3.32306,-2.81881 z m -246.5,2.5 v -6.5 l 4.75,0.1681 c 4.35182,0.15401 4.43565,0.20099 1,0.56037 -3.16972,0.33156 -3.75,0.7595 -3.75,2.76547 0,1.8213 0.63954,2.4701 2.75,2.78981 l 2.75,0.41659 -2.75,0.14983 c -2.35559,0.12834 -2.75,0.58009 -2.75,3.14983 0,1.65 -0.45,3 -1,3 -0.5641,0 -1,-2.83333 -1,-6.5 z m 23.16811,0.81955 c -0.15097,-5.55038 -0.39749,-6.22463 -2.41811,-6.61382 -1.2375,-0.23835 0.225,-0.44979 3.25,-0.46987 3.71778,-0.0247 4.6899,0.18719 3,0.65381 -2.21456,0.6115 -2.56644,1.37081 -3.08189,6.65032 l -0.58189,5.96001 z m 186.34916,-25.39006 c -5.27295,-1.31726 -5.70596,-1.89727 -4.94927,-6.62935 0.98049,-6.1317 1.26168,-6.31074 7.40731,-4.71659 11.218,2.90992 20.03943,0.98808 20.00938,-4.35923 -0.0226,-4.01948 -0.77115,-4.72179 -9.05766,-8.49807 -10.75908,-4.90307 -14.17929,-10.23762 -12.45538,-19.42684 1.92715,-10.27258 17.99631,-16.62765 33.76602,-13.35387 3.1501,0.65396 5.96362,1.57113 6.25226,2.03817 0.28864,0.46703 0.0496,3.06515 -0.5313,5.77359 l -1.0561,4.92444 -5.1692,-1.34087 c -11.12183,-2.88497 -19.23333,-1.11843 -19.23333,4.18866 0,2.73592 0.66021,3.28855 8.3614,6.99893 4.59877,2.21566 9.20006,5.06417 10.22509,6.33003 2.92678,3.61442 3.99019,8.83715 2.84228,13.95935 -2.24655,10.02455 -8.96513,14.26392 -23.42877,14.78337 -4.95,0.17777 -10.79223,-0.1245 -12.98273,-0.67172 z M 14.888399,314.37727 c 2.613495,-8.49033 16.566855,-35.9408 24.653054,-48.5 l 4.024043,-6.25 h 8.278651 8.278652 l 1.590172,8.75 c 2.643994,14.5487 3.555153,22.14849 4.256191,35.5 l 0.669456,12.75 h -7.15402 -7.154019 v -7 -7 h -9.841011 -9.84101 l -2.817979,7 -2.817979,7 h -6.408398 c -6.184293,0 -6.384178,-0.0787 -5.715803,-2.25 z M 50.985592,282.5479 c -0.980714,-13.81638 -1.598117,-13.9904 -7.550807,-2.12828 -2.807313,5.59422 -5.104206,10.40449 -5.104206,10.68948 0,0.28499 2.992384,0.51817 6.649743,0.51817 h 6.649742 z m 72.929168,25.87464 c 4.81118,-11.25156 17.68369,-36.04337 22.22033,-42.79527 l 3.69549,-5.5 h 8.48838 8.48838 l 1.70463,9 c 1.9007,10.03518 4.81861,36.07939 4.81861,43.00913 v 4.49087 h -6.95431 -6.95431 l -0.29569,-6.75 -0.29569,-6.75 h -9.83295 -9.83296 l -2.75525,6.5 -2.75525,6.5 -6.64324,0.29527 -6.64324,0.29526 z m 34.00112,-24.04527 c -0.96324,-10.37492 -1.6748,-13.81272 -2.72466,-13.16387 -0.50604,0.31275 -3.1608,5.03381 -5.89947,10.49125 l -4.9794,9.92262 h 7.13832 7.13833 z m 23.4147,31.63901 c 0,-0.81072 10.98282,-52.37727 11.64691,-54.6846 0.43792,-1.52152 1.45832,-1.75048 6.68495,-1.5 l 6.16814,0.29559 6.55031,16.21698 c 3.60268,8.91934 6.78982,16.45648 7.08254,16.7492 0.29272,0.29273 2.07457,-7.00491 3.95966,-16.21697 l 3.42744,-16.74921 6.62165,-0.29299 6.62164,-0.29299 -2.34138,10.79299 c -1.28776,5.93614 -4.03339,18.78049 -6.1014,28.54299 l -3.76002,17.75 h -6.1677 -6.1677 l -2.62527,-6.25 c -1.4439,-3.4375 -4.60482,-11.2 -7.02427,-17.25 -3.61699,-9.04455 -4.50584,-10.55558 -5.00005,-8.5 -0.91417,3.80234 -6.57545,30.91838 -6.57545,31.49466 0,0.27794 -2.925,0.50534 -6.5,0.50534 -3.575,0 -6.5,-0.27495 -6.5,-0.61099 z m 75.16855,-21.63901 c 2.62902,-12.2375 4.7916,-22.5875 4.80574,-23 0.0141,-0.4125 -3.62307,-0.75 -8.0827,-0.75 h -8.10841 l 0.65674,-2.61666 c 0.36121,-1.43917 0.91625,-3.91417 1.23341,-5.5 l 0.57667,-2.88334 h 22.23181 22.2318 l -1.17949,5.25 -1.17949,5.25 -7.60319,0.29073 -7.60318,0.29073 -0.98457,4.70927 c -0.54152,2.5901 -2.71237,12.92135 -4.82413,22.95835 l -3.83956,18.24908 -6.55574,9.2e-4 -6.55574,9.2e-4 z m 38.94152,20.85449 c -2.72028,-1.50773 -5.01332,-5.15611 -5.09377,-8.10449 -0.03,-1.1 2.09154,-12.2362 4.71456,-24.7471 l 4.76914,-22.74711 18.14245,-0.003 18.14246,-0.003 -1.16421,5.25 -1.16421,5.25 -11.56349,0.28031 -11.5635,0.28031 -1.16475,5.04598 c -0.64061,2.77529 -1.16475,5.46165 -1.16475,5.96969 0,0.50804 4.725,0.92371 10.5,0.92371 11.52555,0 11.07347,-0.30531 9.62471,6.5 l -0.63865,3 -10.98627,0.5 -10.98626,0.5 -0.86456,4.7479 c -1.40182,7.69835 -1.31911,7.7521 11.92805,7.7521 h 11.6398 l -0.65674,2.61666 c -0.36121,1.43917 -0.91625,3.91417 -1.23341,5.5 l -0.57667,2.88334 -14.125,-0.0354 c -9.79625,-0.0246 -14.85742,-0.44138 -16.51493,-1.36007 z"
         id="path4098" />
    </g>
  </g>
</svg>
