<?xml version="1.0" encoding="UTF-8" standalone="no"?>
<!-- Generator: Adobe Illustrator 19.2.1, SVG Export Plug-In . SVG Version: 6.00 Build 0)  -->

<svg
   version="1.1"
   id="layer"
   x="0px"
   y="0px"
   viewBox="0 0 599.99786 190.73882"
   xml:space="preserve"
   sodipodi:docname="basler.svg"
   width="599.99786"
   height="190.73882"
   inkscape:version="1.1.1 (3bf5ae0d25, 2021-09-20)"
   xmlns:inkscape="http://www.inkscape.org/namespaces/inkscape"
   xmlns:sodipodi="http://sodipodi.sourceforge.net/DTD/sodipodi-0.dtd"
   xmlns="http://www.w3.org/2000/svg"
   xmlns:svg="http://www.w3.org/2000/svg"><defs
   id="defs55" /><sodipodi:namedview
   id="namedview53"
   pagecolor="#ffffff"
   bordercolor="#666666"
   borderopacity="1.0"
   inkscape:pageshadow="2"
   inkscape:pageopacity="0.0"
   inkscape:pagecheckerboard="0"
   showgrid="false"
   fit-margin-top="0"
   fit-margin-left="0"
   fit-margin-right="0"
   fit-margin-bottom="0"
   inkscape:zoom="1.1027607"
   inkscape:cx="152.79834"
   inkscape:cy="70.278166"
   inkscape:window-width="1920"
   inkscape:window-height="1017"
   inkscape:window-x="-8"
   inkscape:window-y="-8"
   inkscape:window-maximized="1"
   inkscape:current-layer="layer" />
<style
   type="text/css"
   id="style2">
	.st0{fill:#00457C;}
	.st1{fill:#F59D21;}
</style>
<g
   id="g50"
   transform="translate(-19.1,-226.86118)">
	<path
   class="st0"
   d="m 308.1,332.6 v -55.2 c 0,-4.1 -5.5,-5.2 -5.5,-5.2 h -11.8 v 82.7 h 64.7 c 0,0 5.4,0.7 5.4,-5.7 v -10.6 h -46.1 c -7.8,0 -6.7,-6 -6.7,-6"
   id="path4" />
	<path
   class="st0"
   d="m 99.6,310.5 c 0.5,-0.5 0.9,-1 1.4,-1.6 2.7,-3.7 4.3,-8.6 4.3,-13.4 0,-6.9 -3,-13.3 -8.2,-17.6 -6.8,-5.7 -14.4,-5.7 -20.6,-5.7 H 27.9 c -7.9,0 -8.8,5.6 -8.8,5.6 v 77.1 h 61.6 c 8.5,0 15.1,-1.9 19.7,-5.5 5.5,-4.4 8.6,-11.4 8.6,-19.4 0,-8.2 -3.5,-15.2 -9.4,-19.5 m -63.2,-18 c 0,-3.8 3.4,-4.3 6.5,-4.3 h 33.8 c 4.9,0 7.1,0.7 8,1.3 1.5,0.9 3,3.2 3,6.4 0,1.5 -0.2,3.5 -2.1,5.2 -2.5,2.4 -6.5,2.6 -10.1,2.6 H 36.4 Z M 89.5,336 c -2.2,2.3 -5.8,2.6 -9,2.6 H 36.4 V 320 H 75 c 9.6,0 12.8,1.9 13.8,3 l 0.4,0.4 c 0.4,0.4 2.4,2.3 2.4,6.6 0,3.5 -1.6,5.5 -2.1,6"
   id="path6" />
	<path
   class="st0"
   d="m 384.2,319.9 h 53.5 c 4.6,0 4.1,-4 4.1,-4 v -12.3 h -57.6 v -8.8 -0.6 -1.4 c 0,-3.8 3.4,-4.3 6.4,-4.3 h 2.1 1.4 47.6 c 0,0 4.7,0.3 4.7,-4.5 v -11.8 h -71.9 c -8.3,0 -7.8,5.7 -7.8,5.7 v 77 h 78.2 c 0,0 4.4,0.2 4.4,-4.5 V 338.6 H 384 v -18.7 z"
   id="path8" />
	<path
   class="st0"
   d="m 209.2,339.8 c 10.6,0 26.7,0 32.9,0 0.7,0 1.5,0 2.4,0 6.5,-0.2 21.7,0.3 23.1,-8.2 0.1,-0.5 0.2,-0.9 0.1,-1.3 -0.3,-3.3 -1.8,-9.2 -24.2,-10.2 -12.3,-0.5 -21,-0.9 -28.4,-3.7 -8.9,-3.3 -13.6,-9.6 -13.9,-18.6 l -0.1,-0.8 c 0,-15.3 12.6,-23.8 35.2,-24.8 1.3,0 2.6,-0.1 3.9,-0.1 h 1.6 0.7 c 10.5,0 20.8,0.1 38.4,0.1 v 10.5 c 0,5.6 -6.5,5.1 -6.5,5.1 -14.5,0 -23.8,-0.1 -30.5,-0.1 -0.6,0 -1.4,0 -2.3,0 h -0.9 c -1.1,0 -2.6,0 -4.3,0.1 -6.7,0.4 -17.6,1.4 -17.6,7.8 0,0.5 0,0.9 0.1,1.3 0.6,2.4 3.3,5.5 21.8,6.3 h 1.1 c 12.5,0.5 22.4,2.3 30.3,5.7 9.1,3.9 13.7,10.9 13.7,20.9 0,0.5 0,1 0,1.6 v 0.2 l -0.1,0.9 c -0.8,9.1 -5.3,21.6 -37.9,22.4 l -0.1,0.1 h -1.1 -1.2 c -11.3,0 -22.6,-0.1 -36.1,-0.1 0,0 -5.3,-10.7 -5.3,-10.7 0,0 -1.9,-4.4 5.2,-4.4"
   id="path10" />
	<path
   class="st1"
   d="m 579.7,244.4 c -7.6,-7.5 -17.5,-8.4 -17.5,-8.4 -19.7,8.4 -39.6,20.4 -39.6,20.4 0,0 29.7,-13.4 60.3,-7.2 0,0.1 -1.7,-3.3 -3.2,-4.8"
   id="path12" />
	<path
   class="st0"
   d="m 616.7,235.5 c -8.7,-13.1 -32.2,-8.6 -47.3,-4 4.3,1.2 28.3,3.2 19.6,39.6 -5.2,21.6 -20.7,47.1 -20,48.4 0.9,1.7 62.9,-61.1 47.7,-84"
   id="path14" />
	<path
   class="st0"
   d="m 522.1,321.4 c 3.7,-0.8 7.6,-2.3 11,-4.9 2.1,-1.7 3.8,-3.6 5.2,-5.9 0.1,-0.1 0.2,-0.3 0.3,-0.5 2.2,-3.8 3.4,-8.2 3.4,-13.1 0,-9.1 -4.5,-17.3 -11.8,-21.5 -6.2,-3.4 -13.2,-3.4 -18.4,-3.4 h -48.7 c -6.2,0 -6.5,4.9 -6.5,4.9 v 77.9 h 12.7 c 0,0 4.5,0.1 4.5,-5.2 V 322.6 H 495 c 0,0 0.3,0 0.8,0 0.2,0 1.7,0 3.9,0 l 22.5,25.6 v 0 c 1.6,1.8 2.7,3.1 2.7,3.1 0,0 2.9,3.7 9.2,3.6 h 17.5 z M 473.9,306.2 V 293 c 0,0 -0.6,-4.6 5.6,-4.6 h 32.7 c 3.5,0 6.9,0 9.3,1.9 1.3,1 2.9,3.3 2.9,6.6 0,2.5 -0.8,4.9 -2.1,6.3 -2.7,2.9 -7.7,3.1 -14.4,3.1 h -34 z"
   id="path16" />
	<path
   class="st0"
   d="m 160.5,272.2 h -5.3 -1.6 c -7.3,0 -7.9,1.1 -10.2,5.9 -4.7,10 -14.7,27.8 -23,44.6 4.5,-3.5 11.6,-7.1 22.2,-7.7 l 10.9,-19.8 12.5,24.9 H 141.3 V 320 c -14.6,1.2 -21.8,8.7 -24.3,11.9 -5.7,11.5 -9.9,20 -9.9,20 0,0 -1.7,2.9 1.9,2.9 h 15.2 l 6.3,-12.9 c 0,0 2.8,-5.9 10.1,-5.9 h 33.2 c 0,0 5.6,11 7.2,14.3 1.3,2.5 2.2,4.5 6.8,4.5 h 2.8 c 4.3,0 8,0 11.3,0 z"
   id="path18" />
	<path
   class="st0"
   d="m 181.5,404.8 v -13.2 h -3.1 v -2.9 h 3.1 v -6.6 h 3.3 v 6.6 h 7 v 2.9 h -7 v 12.8 c 0,2.7 1.5,3.6 3.7,3.6 1.1,0 2,-0.2 3.2,-0.8 v 2.8 c -1.1,0.6 -2.4,0.9 -3.9,0.9 -3.6,0.1 -6.3,-1.6 -6.3,-6.1"
   id="path20" />
	<path
   class="st0"
   d="m 196.7,379.7 h 3.3 v 12.9 c 1.4,-2.4 3.7,-4.3 7.5,-4.3 5.3,0 8.4,3.6 8.4,8.8 v 13.6 h -3.3 v -12.8 c 0,-4.1 -2.2,-6.6 -6.1,-6.6 -3.8,0 -6.6,2.8 -6.6,6.9 v 12.6 h -3.3 v -31.1 z"
   id="path22" />
	<path
   class="st0"
   d="m 230.8,408.3 c 3,0 5.1,-1.2 6.9,-3.1 l 2,1.8 c -2.2,2.5 -4.9,4.1 -9,4.1 -6,0 -10.9,-4.6 -10.9,-11.5 0,-6.4 4.5,-11.5 10.5,-11.5 6.5,0 10.2,5.2 10.2,11.6 0,0.3 0,0.6 0,1.2 H 223 c 0.5,4.7 3.9,7.4 7.8,7.4 m 6.4,-9.9 c -0.4,-4 -2.7,-7.4 -7,-7.4 -3.8,0 -6.7,3.1 -7.1,7.4 z"
   id="path24" />
	<path
   class="st0"
   d="m 258.9,388.7 h 3.3 v 4.4 c 1.8,-2.6 4.4,-4.9 8.4,-4.9 5.3,0 10.5,4.2 10.5,11.4 v 0.1 c 0,7.2 -5.2,11.4 -10.5,11.4 -4.1,0 -6.7,-2.2 -8.4,-4.7 v 11 h -3.3 z m 18.8,11 v 0 c 0,-5.3 -3.6,-8.6 -7.7,-8.6 -4.1,0 -7.9,3.4 -7.9,8.4 v 0.1 c 0,5.1 3.9,8.5 7.9,8.5 4.2,0.1 7.7,-3.1 7.7,-8.4"
   id="path26" />
	<path
   class="st0"
   d="m 285.6,399.8 v 0 c 0,-6.3 4.8,-11.5 11.4,-11.5 6.6,0 11.4,5.2 11.4,11.4 v 0.1 c 0,6.2 -4.9,11.5 -11.5,11.5 -6.5,-0.2 -11.3,-5.3 -11.3,-11.5 m 19.5,0 v 0 c 0,-4.8 -3.5,-8.7 -8.1,-8.7 -4.8,0 -8,3.9 -8,8.5 v 0.1 c 0,4.7 3.5,8.5 8.1,8.5 4.7,0 8,-3.8 8,-8.4"
   id="path28" />
	<polygon
   class="st0"
   points="334.8,410.8 332,410.8 326.1,393.5 320.1,410.8 317.2,410.8 309.6,388.7 313.1,388.7 318.8,406.3 324.7,388.6 327.4,388.6 333.4,406.3 339.1,388.7 342.5,388.7 "
   id="polygon30" />
	<path
   class="st0"
   d="m 356.8,408.3 c 3,0 5.1,-1.2 6.9,-3.1 l 2,1.8 c -2.2,2.5 -4.9,4.1 -9,4.1 -6,0 -10.9,-4.6 -10.9,-11.5 0,-6.4 4.5,-11.5 10.5,-11.5 6.5,0 10.2,5.2 10.2,11.6 0,0.3 0,0.6 0,1.2 h -17.4 c 0.4,4.7 3.8,7.4 7.7,7.4 m 6.4,-9.9 c -0.4,-4 -2.7,-7.4 -7,-7.4 -3.8,0 -6.7,3.1 -7.1,7.4 z"
   id="path32" />
	<path
   class="st0"
   d="m 372.2,388.7 h 3.3 v 5.7 c 1.6,-3.6 4.8,-6.3 8.9,-6.1 v 3.5 h -0.3 c -4.8,0 -8.7,3.4 -8.7,10.1 v 8.7 h -3.3 v -21.9 z"
   id="path34" />
	<path
   class="st0"
   d="m 399.2,399.8 v 0 c 0,-6.3 4.8,-11.5 11.5,-11.5 6.6,0 11.4,5.2 11.4,11.4 v 0.1 c 0,6.2 -4.9,11.5 -11.5,11.5 -6.6,-0.2 -11.4,-5.3 -11.4,-11.5 m 19.5,0 v 0 c 0,-4.8 -3.5,-8.7 -8.1,-8.7 -4.8,0 -8,3.9 -8,8.5 v 0.1 c 0,4.7 3.5,8.5 8.1,8.5 4.7,0 8,-3.8 8,-8.4"
   id="path36" />
	<path
   class="st0"
   d="m 428.3,391.6 h -3 v -2.8 h 3 v -1.9 c 0,-2.5 0.7,-4.4 1.9,-5.6 1.1,-1.1 2.7,-1.7 4.7,-1.7 1.5,0 2.5,0.2 3.6,0.5 v 2.8 c -1.2,-0.3 -2.1,-0.6 -3.2,-0.6 -2.5,0 -3.8,1.5 -3.8,4.7 v 1.8 h 7 v 2.8 h -6.9 v 19 h -3.3 z"
   id="path38" />
	<path
   class="st1"
   d="m 453.6,407.8 1.7,-2.3 c 2.4,1.8 5,2.8 7.6,2.8 2.6,0 4.5,-1.4 4.5,-3.5 v -0.1 c 0,-2.2 -2.6,-3.1 -5.5,-3.9 -3.4,-1 -7.3,-2.2 -7.3,-6.2 v -0.1 c 0,-3.8 3.1,-6.3 7.5,-6.3 2.7,0 5.6,0.9 7.9,2.4 l -1.5,2.5 c -2,-1.3 -4.4,-2.1 -6.5,-2.1 -2.6,0 -4.2,1.4 -4.2,3.2 v 0.1 c 0,2.1 2.7,2.9 5.6,3.8 3.4,1 7,2.3 7,6.3 v 0.1 c 0,4.2 -3.4,6.6 -7.8,6.6 -3.1,0 -6.6,-1.3 -9,-3.3"
   id="path40" />
	<path
   class="st1"
   d="m 475.7,380.3 h 3.7 v 3.6 h -3.7 z m 0.2,8.4 h 3.3 v 21.9 h -3.3 z"
   id="path42" />
	<path
   class="st1"
   d="m 485.7,414.5 1.5,-2.5 c 2.5,1.8 5.3,2.8 8.4,2.8 4.8,0 8,-2.7 8,-7.8 v -2.6 c -1.9,2.5 -4.6,4.6 -8.6,4.6 -5.3,0 -10.3,-3.9 -10.3,-10.3 v -0.1 c 0,-6.4 5.1,-10.3 10.3,-10.3 4.1,0 6.8,2 8.6,4.4 v -3.9 h 3.3 v 18.1 c 0,3.4 -1,6 -2.8,7.8 -1.9,2 -4.9,2.9 -8.4,2.9 -3.7,-0.1 -7.1,-1.1 -10,-3.1 m 18,-15.9 v 0 c 0,-4.6 -3.9,-7.5 -8.1,-7.5 -4.2,0 -7.6,2.9 -7.6,7.4 v 0.1 c 0,4.4 3.5,7.5 7.6,7.5 4.2,0 8.1,-3 8.1,-7.5"
   id="path44" />
	<path
   class="st1"
   d="m 513.3,379.7 h 3.3 v 12.9 c 1.4,-2.4 3.7,-4.3 7.5,-4.3 5.3,0 8.4,3.6 8.4,8.8 v 13.6 h -3.3 v -12.8 c 0,-4.1 -2.2,-6.6 -6.1,-6.6 -3.8,0 -6.6,2.8 -6.6,6.9 v 12.6 h -3.3 v -31.1 z"
   id="path46" />
	<path
   class="st1"
   d="m 539.7,404.8 v -13.2 h -3.1 v -2.9 h 3.1 v -6.6 h 3.3 v 6.6 h 7 v 2.9 h -7 v 12.8 c 0,2.7 1.5,3.6 3.7,3.6 1.1,0 2,-0.2 3.2,-0.8 v 2.8 c -1.1,0.6 -2.4,0.9 -3.9,0.9 -3.6,0.1 -6.3,-1.6 -6.3,-6.1"
   id="path48" />
</g>
</svg>
