<?xml version="1.0" encoding="UTF-8" standalone="no"?>
<!-- Created with Inkscape (http://www.inkscape.org/) -->

<svg
   xmlns:dc="http://purl.org/dc/elements/1.1/"
   xmlns:cc="http://creativecommons.org/ns#"
   xmlns:rdf="http://www.w3.org/1999/02/22-rdf-syntax-ns#"
   xmlns:svg="http://www.w3.org/2000/svg"
   xmlns="http://www.w3.org/2000/svg"
   xmlns:sodipodi="http://sodipodi.sourceforge.net/DTD/sodipodi-0.dtd"
   xmlns:inkscape="http://www.inkscape.org/namespaces/inkscape"
   version="1.1"
   id="svg10"
   width="300"
   height="212.41467"
   viewBox="0 0 300 212.41467"
   sodipodi:docname="DL.svg"
   inkscape:version="0.92.1 r15371">
  <metadata
     id="metadata16">
    <rdf:RDF>
      <cc:Work
         rdf:about="">
        <dc:format>image/svg+xml</dc:format>
        <dc:type
           rdf:resource="http://purl.org/dc/dcmitype/StillImage" />
        <dc:title></dc:title>
      </cc:Work>
    </rdf:RDF>
  </metadata>
  <defs
     id="defs14" />
  <sodipodi:namedview
     pagecolor="#ffffff"
     bordercolor="#666666"
     borderopacity="1"
     objecttolerance="10"
     gridtolerance="10"
     guidetolerance="10"
     inkscape:pageopacity="0"
     inkscape:pageshadow="2"
     inkscape:window-width="1280"
     inkscape:window-height="962"
     id="namedview12"
     showgrid="false"
     fit-margin-top="0"
     fit-margin-left="0"
     fit-margin-right="0"
     fit-margin-bottom="0"
     inkscape:zoom="1.3216667"
     inkscape:cx="201.09943"
     inkscape:cy="99.888075"
     inkscape:window-x="-8"
     inkscape:window-y="-8"
     inkscape:window-maximized="1"
     inkscape:current-layer="svg10" />
  <g
     id="g20"
     transform="translate(0,-87.586981)">
    <path
       style="fill:#080808;stroke-width:1.33333337"
       d="m 141.69841,253.95099 c -0.0107,-25.32696 -0.3523,-46.38267 -0.76009,-46.79046 -0.40779,-0.40778 -25.38574,-0.75974 -55.506545,-0.78212 l -54.765108,-0.0407 V 194.50219 182.66667 H 150 269.33333 v 11.86116 11.86116 l -51.43458,-0.0265 c -31.21235,-0.0161 -51.93912,0.47796 -52.71787,1.25671 -0.78737,0.78737 -1.13468,18.88541 -0.89875,46.83287 l 0.38454,45.54958 -11.4748,-7.8e-4 -11.47479,-7.9e-4 -0.0187,-46.04901 z M 0,150 c 0,-8.12281 0.47213496,-11.36252 1.6666667,-11.43639 0.9166666,-0.0567 7.0465889,-0.0911 13.6220493,-0.0764 6.575461,0.0147 12.725461,-0.6124 13.666667,-1.39353 1.079785,-0.89615 1.748716,-4.92719 1.812721,-10.92365 0.1164,-10.90522 1.583537,-15.66984 7.312821,-23.74881 8.575584,-12.092597 28.548212,-18.085264 42.808416,-12.844411 3.789139,1.392568 8.383776,3.707466 10.210307,5.144214 4.258401,3.349658 5.110549,3.294086 11.024052,-0.718923 12.48701,-8.473917 29.93225,-8.473917 42.41927,0 5.24275,3.557829 8.12115,4.159361 9.4688,1.978807 1.84582,-2.986578 12.47898,-7.10628 20.6549,-8.002504 7.40353,-0.811559 9.81714,-0.490727 16.56042,2.201305 4.34158,1.733229 9.0267,4.176612 10.41139,5.429739 2.05185,1.856901 2.93484,1.974464 4.77291,0.635466 1.2404,-0.90362 5.55528,-3.219326 9.58861,-5.146013 5.87297,-2.805468 9.04596,-3.451755 15.93343,-3.245393 15.55313,0.466001 27.0288,7.669485 33.6526,21.124343 3.69305,7.50164 4.22906,9.88878 3.96248,17.64674 -0.41032,11.9407 0.45312,12.59694 15.47593,11.76232 6.40323,-0.35575 12.39223,-0.38835 13.30889,-0.0724 1.15583,0.39833 1.66667,4.01405 1.66667,11.7966 v 11.22222 h -25.91015 c -23.54008,0 -25.96954,-0.21344 -26.5595,-2.33333 -0.35714,-1.28333 -0.66228,-9.85145 -0.67808,-19.04025 -0.0159,-9.18881 -0.59518,-18.18881 -1.2875,-20 -4.51664,-11.81628 -22.82666,-12.17197 -27.6877,-0.53786 L 215.96421,124 204.98211,123.98973 194,123.97947 191.02432,118.76783 C 184.48545,107.3156 167.12113,108.71855 163.39673,121 c -0.85497,2.81931 -1.62709,3 -12.81992,3 -8.82554,0 -11.91014,-0.44469 -11.91014,-1.71703 0,-0.94437 -1.65,-3.66834 -3.66667,-6.05327 -6.93306,-8.19911 -20.66491,-6.55025 -25.23337,3.02993 L 107.5061,124 H 95.770944 84.035787 l -1.969908,-4.71465 c -4.693644,-11.23348 -23.175447,-10.97682 -27.519548,0.38216 -0.631199,1.65046 -1.237506,10.94726 -1.347348,20.65956 -0.10984,9.71229 -0.488742,18.41192 -0.842,19.33249 -0.484731,1.26319 -6.985198,1.67377 -26.499635,1.67377 H 0 Z"
       id="path22"
       inkscape:connector-curvature="0" />
  </g>
</svg>
