<?xml version="1.0" standalone="no"?>
<!DOCTYPE svg PUBLIC "-//W3C//DTD SVG 20010904//EN"
 "http://www.w3.org/TR/2001/REC-SVG-20010904/DTD/svg10.dtd">
<svg version="1.0" xmlns="http://www.w3.org/2000/svg"
 width="1054.000000pt" height="1280.000000pt" viewBox="0 0 1054.000000 1280.000000"
 preserveAspectRatio="xMidYMid meet">
<metadata>
Created by potrace 1.15, written by Peter Selinger 2001-2017
</metadata>
<g transform="translate(0.000000,1280.000000) scale(0.100000,-0.100000)"
fill="#000000" stroke="none">
<path d="M8913 12583 c15 -2 37 -2 50 0 12 2 0 4 -28 4 -27 0 -38 -2 -22 -4z"/>
<path d="M8820 12573 c-53 -9 -158 -46 -225 -80 -279 -142 -460 -381 -535
-709 -29 -123 -32 -347 -7 -459 32 -143 105 -321 158 -385 14 -17 12 -11 -6
20 -64 108 -112 233 -142 365 -21 98 -21 350 2 425 9 30 16 62 16 70 1 25 32
110 41 110 11 0 10 -14 -2 -26 -6 -6 -15 -25 -20 -43 -7 -26 -5 -36 11 -52 15
-15 16 -19 4 -19 -8 0 -15 5 -15 12 0 6 -3 8 -6 5 -4 -4 -1 -14 7 -23 7 -9 12
-33 10 -54 -1 -21 3 -41 9 -45 9 -6 9 -10 -1 -16 -11 -6 -11 -11 -2 -20 13
-13 6 -42 -8 -33 -5 3 -4 -6 3 -20 6 -14 15 -26 20 -26 4 0 8 -12 8 -28 0 -15
8 -38 17 -52 16 -22 16 -23 0 -17 -9 3 -17 2 -17 -4 0 -6 9 -13 20 -16 11 -3
17 -9 15 -14 -3 -4 -13 -5 -23 -2 -9 3 -14 3 -10 -1 3 -4 14 -9 25 -10 12 -2
18 -11 18 -30 -1 -15 5 -26 12 -26 7 0 12 -3 12 -7 -1 -5 0 -11 1 -15 1 -5 3
-14 4 -20 0 -7 11 -14 24 -16 12 -2 20 -8 17 -13 -4 -5 4 -9 17 -9 21 1 22 2
5 14 -14 11 -15 15 -4 25 8 6 16 9 19 6 2 -3 5 2 5 10 0 9 -6 14 -12 11 -6 -2
-12 2 -12 10 0 8 5 14 10 14 5 0 5 6 -2 13 -6 8 -7 17 -2 23 5 5 7 22 4 37 -4
21 -8 25 -14 15 -6 -9 -9 -9 -9 -1 0 6 5 15 10 18 6 3 10 15 10 25 0 10 3 20
8 22 9 4 43 101 36 107 -9 10 -27 -19 -34 -56 l-8 -38 -1 42 c-1 46 40 153 59
153 6 0 8 5 5 10 -11 17 -24 11 -39 -17 -8 -16 -15 -23 -15 -18 -1 20 45 90
58 90 8 0 16 6 19 13 4 13 -23 7 -47 -12 -9 -7 -8 -1 4 17 10 15 30 34 44 42
23 13 24 14 6 15 -12 0 -27 -6 -35 -12 -8 -7 -4 -1 9 15 14 15 30 27 38 27 7
0 13 5 13 11 0 6 -9 8 -22 4 -23 -7 -23 -7 -3 9 11 8 29 16 40 16 15 0 16 3 7
12 -10 10 -17 10 -33 0 -13 -9 -18 -9 -14 -2 4 6 19 16 33 21 19 8 23 12 13
18 -10 6 -5 11 15 19 23 8 24 11 9 12 -19 1 -19 1 -2 11 9 6 27 8 40 5 14 -4
11 0 -8 9 l-30 14 29 1 c24 0 27 2 16 15 -10 13 -9 15 11 15 19 0 21 2 9 10
-12 8 -12 10 5 11 11 0 15 3 8 6 -13 5 28 53 45 53 5 0 15 11 22 25 7 13 21
27 32 31 10 3 18 10 18 16 0 5 7 8 14 5 10 -4 13 -1 10 7 -3 8 -1 17 5 21 6 3
11 0 11 -7 0 -10 3 -9 9 2 6 8 7 18 5 22 -3 5 -2 8 3 7 4 -1 15 0 23 4 8 3 29
10 45 16 17 6 20 9 8 7 -13 -2 -23 0 -23 5 0 5 6 9 14 9 8 0 24 12 35 28 18
24 21 25 22 7 1 -11 1 -23 0 -28 -1 -4 8 -2 20 5 14 9 19 21 16 40 -2 16 1 24
6 21 6 -4 8 6 4 25 -4 19 -2 32 5 34 6 2 -14 10 -45 18 -32 7 -57 17 -57 22 0
4 -8 8 -17 8 -16 0 -16 -2 -3 -11 13 -9 13 -10 -1 -6 -9 3 -22 0 -29 -6 -10
-9 -11 -9 -6 1 8 14 -10 17 -19 2 -3 -5 -18 -10 -33 -10 -24 1 -22 3 13 16 22
8 78 25 125 39 77 21 85 29 20 18z m-647 -528 c-3 -9 -8 -14 -10 -11 -3 3 -2
9 2 15 9 16 15 13 8 -4z m-20 -40 c-3 -9 -8 -14 -10 -11 -3 3 -2 9 2 15 9 16
15 13 8 -4z m-22 -52 c-12 -20 -14 -14 -5 12 4 9 9 14 11 11 3 -2 0 -13 -6
-23z m26 -90 c-3 -10 -5 -2 -5 17 0 19 2 27 5 18 2 -10 2 -26 0 -35z m-24 -32
c-10 -13 -24 20 -17 40 8 23 8 23 14 -6 3 -16 5 -32 3 -34z m2 -231 c3 -5 1
-10 -4 -10 -6 0 -11 5 -11 10 0 6 2 10 4 10 3 0 8 -4 11 -10z m90 -190 c3 -6
-1 -7 -9 -4 -18 7 -21 14 -7 14 6 0 13 -4 16 -10z m30 -30 c-3 -5 -14 -10 -23
-10 -15 0 -15 2 -2 10 20 13 33 13 25 0z m-2 -32 c-2 -5 1 -8 7 -8 6 0 8 -4 5
-10 -3 -5 -16 -10 -28 -9 -21 0 -21 1 -2 9 16 7 17 9 3 9 -26 1 -29 16 -3 16
13 0 21 -3 18 -7z"/>
<path d="M8890 12445 c-7 -8 -9 -15 -6 -15 4 0 2 -9 -4 -20 -6 -11 -8 -20 -6
-20 8 0 38 61 33 66 -2 3 -10 -2 -17 -11z"/>
<path d="M8911 12404 c0 -11 3 -14 6 -6 3 7 2 16 -1 19 -3 4 -6 -2 -5 -13z"/>
<path d="M2511 11769 c-220 -26 -452 -125 -668 -285 -103 -77 -331 -305 -423
-424 -90 -117 -246 -353 -305 -463 -254 -474 -445 -1123 -470 -1594 -3 -59 -8
-132 -10 -161 l-5 -53 75 -34 c41 -19 75 -36 75 -37 0 -2 -29 -4 -64 -4 -187
-4 -372 -108 -483 -274 -99 -148 -155 -318 -209 -635 -22 -128 -25 -406 -5
-485 49 -200 173 -316 375 -355 105 -20 217 -19 496 6 355 32 514 20 655 -46
194 -92 281 -317 320 -835 3 -41 12 -302 20 -580 21 -693 40 -902 106 -1158
60 -234 123 -356 249 -482 137 -137 257 -184 470 -184 255 2 534 98 910 314
374 216 638 429 855 691 42 52 81 98 85 102 4 5 1 -20 -8 -55 -11 -45 -16
-110 -15 -228 0 -145 3 -177 26 -265 63 -237 204 -442 373 -541 136 -80 313
-98 462 -49 118 40 205 97 313 204 197 198 348 485 455 865 42 147 72 315 115
626 22 162 49 342 60 400 85 444 243 640 613 755 l69 21 23 -21 c12 -11 116
-72 231 -135 325 -177 297 -157 297 -215 -1 -47 -1 -47 3 -7 2 23 6 42 9 42
14 0 83 -54 78 -61 -3 -5 1 -6 9 -3 8 3 19 -1 26 -9 12 -16 -46 -26 -277 -47
-119 -11 -186 -31 -180 -52 2 -7 27 -24 56 -38 37 -18 50 -29 46 -40 -79 -206
-94 -473 -39 -665 34 -117 66 -175 142 -256 89 -94 224 -159 330 -159 18 0 33
-3 33 -8 0 -4 -112 -87 -248 -184 -311 -223 -459 -341 -590 -471 -315 -312
-447 -581 -483 -985 -31 -343 61 -817 258 -1322 60 -153 196 -431 224 -455
l22 -20 -6 55 c-4 30 -42 183 -86 340 -172 622 -231 971 -218 1279 16 374 136
652 400 928 114 119 257 241 582 494 154 120 339 266 410 326 72 60 153 121
180 137 65 38 151 105 195 151 19 20 61 54 92 76 139 95 298 323 412 589 153
360 192 722 96 910 -88 172 -274 216 -515 123 l-50 -19 0 390 c0 308 -4 425
-18 551 -30 267 -66 473 -98 550 -7 17 -11 54 -10 83 2 46 -1 56 -27 81 -53
53 -145 63 -313 35 -52 -9 -143 -31 -204 -49 -113 -34 -212 -74 -185 -75 53
-1 502 53 546 65 18 6 20 3 16 -28 -2 -19 1 -43 6 -53 9 -18 3 -19 -137 -20
-115 0 -189 -7 -350 -33 -145 -23 -206 -30 -214 -22 -13 13 6 30 66 62 22 11
37 22 35 23 -1 2 -39 0 -82 -5 -68 -7 -83 -12 -108 -36 l-29 -29 -11 -275
c-15 -399 0 -1139 28 -1352 7 -49 7 -50 -17 -43 -52 14 -248 18 -345 7 -264
-31 -436 -104 -587 -249 -183 -177 -266 -395 -351 -927 -97 -600 -155 -819
-287 -1090 -82 -169 -148 -265 -259 -376 -108 -108 -185 -153 -289 -167 -210
-29 -414 121 -526 386 -66 158 -90 303 -81 502 8 185 24 259 70 335 60 97 182
350 231 480 252 664 312 1453 174 2280 -115 688 -389 1401 -755 1963 -41 62
-74 116 -74 120 0 4 25 32 56 62 30 30 80 85 111 122 l55 68 -87 152 c-108
191 -304 485 -427 643 -113 145 -391 428 -508 516 -247 185 -480 287 -732 319
-93 11 -151 11 -257 -1z m-156 -1915 c110 -19 211 -44 519 -128 283 -78 400
-102 566 -115 142 -12 286 -1 406 29 60 15 217 83 294 127 8 5 140 -207 225
-360 120 -215 240 -485 339 -759 19 -54 33 -98 31 -98 -3 0 -16 21 -30 48 -42
80 -103 134 -177 157 l-43 14 57 -6 c46 -5 59 -3 63 9 11 27 -34 139 -150 373
-183 370 -286 537 -338 550 -13 4 -64 -9 -122 -30 -176 -64 -350 -84 -565 -66
-183 15 -279 34 -640 121 -429 105 -486 115 -650 114 -119 0 -145 -4 -215 -27
-225 -75 -408 -259 -545 -551 -85 -180 -169 -419 -177 -507 -5 -53 -3 -62 36
-133 23 -42 39 -80 36 -86 -10 -17 -45 -12 -195 31 -164 46 -314 61 -408 40
-245 -52 -405 -275 -472 -654 -42 -246 -46 -508 -8 -618 32 -93 101 -155 201
-181 69 -17 343 -16 507 2 69 7 206 14 305 14 221 -1 291 -14 433 -84 135 -67
203 -133 260 -250 108 -222 150 -517 217 -1500 38 -564 59 -745 111 -948 50
-201 149 -339 292 -410 76 -37 76 -37 201 -37 101 0 142 5 206 23 454 129
1125 577 1393 929 335 440 538 979 618 1643 24 196 24 645 0 890 -31 315 -72
565 -121 734 -34 116 -47 138 -105 164 -27 12 -89 61 -144 113 l-96 91 -18
-44 c-10 -23 -36 -92 -57 -151 -38 -103 -63 -147 -86 -147 -14 0 -59 47 -59
61 0 6 9 0 21 -15 43 -55 68 -25 99 117 48 222 88 253 189 149 31 -31 73 -78
94 -104 70 -88 99 -84 107 14 l5 63 37 -135 c91 -328 149 -652 178 -995 14
-157 13 -577 0 -735 -51 -597 -228 -1138 -509 -1561 -209 -315 -433 -531 -787
-757 -320 -204 -575 -323 -809 -378 -94 -22 -254 -22 -324 -1 -200 61 -328
260 -400 622 -43 212 -62 448 -81 980 -23 663 -53 939 -125 1159 -65 200 -169
329 -325 404 -47 22 -121 49 -165 59 -112 25 -343 23 -590 -7 -431 -51 -592
-22 -675 123 -45 79 -62 170 -61 332 2 306 73 635 174 800 37 60 117 146 172
184 145 101 372 119 570 46 123 -45 188 -64 196 -59 4 2 -14 39 -42 81 -42 64
-49 82 -43 107 16 78 78 276 118 378 167 434 371 663 658 738 93 24 296 26
423 4z m2070 -1093 c-86 -21 -142 -70 -185 -161 -17 -35 -20 -38 -15 -15 22
108 105 184 200 183 l30 0 -30 -7z m-3239 -169 c-9 -8 -56 31 -56 46 0 11 8 8
30 -13 16 -16 28 -30 26 -33z m1729 -20 c90 -35 170 -100 246 -201 58 -76 86
-146 93 -232 6 -70 9 -76 -36 73 -44 145 -140 267 -253 320 -191 89 -359 12
-457 -211 -16 -36 -26 -52 -23 -36 9 43 57 143 92 190 80 108 211 146 338 97z
m-15 -233 c60 -37 143 -133 215 -249 38 -62 78 -121 89 -132 20 -18 20 -18 0
-18 -27 0 -52 28 -107 120 -79 130 -190 236 -268 255 -56 14 -111 -64 -187
-267 -43 -115 -81 -193 -89 -185 -2 3 0 14 5 24 6 10 24 68 42 128 63 221 145
345 228 345 20 0 53 -10 72 -21z m5384 -76 c-4 -10 -9 -133 -12 -273 l-4 -256
-92 24 c-170 43 -395 40 -549 -8 -33 -11 -62 -18 -63 -17 -1 1 2 79 7 172 17
343 18 305 -11 305 l-25 1 25 20 25 21 5 -23 c6 -23 10 -24 140 -31 157 -9
355 15 475 56 88 29 89 29 79 9z m-5797 -402 c9 -20 19 -39 21 -44 2 -4 -3 -5
-11 -1 -24 9 -37 51 -42 132 l-4 77 10 -64 c5 -35 17 -80 26 -100z m1515 107
c79 -62 227 -473 273 -762 20 -126 21 -324 1 -389 -52 -170 -193 -225 -369
-144 -44 20 -107 57 -142 82 -160 114 -316 346 -250 372 22 8 84 -18 200 -83
285 -160 301 -166 317 -109 12 43 2 153 -44 475 -45 312 -56 521 -29 553 16
20 22 21 43 5z m4272 -455 c30 -425 39 -533 51 -633 8 -63 17 -124 20 -135 3
-16 -9 -29 -58 -60 -34 -22 -99 -76 -143 -120 -89 -87 -93 -95 -121 -250 -23
-131 -29 -575 -9 -716 28 -197 81 -325 166 -402 l51 -46 -30 -15 c-16 -9 -69
-28 -118 -42 -73 -23 -108 -27 -208 -28 -116 -1 -122 0 -187 32 -81 40 -131
93 -173 186 -60 130 -84 283 -85 527 l0 125 73 -12 c138 -24 208 -26 285 -10
90 19 137 46 162 97 37 72 21 137 -56 219 -43 46 -180 141 -246 171 -15 6 -25
16 -21 22 3 6 2 7 -4 4 -5 -3 -46 8 -90 24 l-80 31 12 42 c7 23 20 107 29 186
10 80 21 179 26 220 5 41 14 174 22 295 12 204 13 213 18 125 3 -52 2 -97 -1
-100 -4 -3 -8 -42 -11 -87 -4 -63 -1 -83 9 -87 7 -3 13 -11 13 -17 0 -8 -4 -8
-15 1 -12 10 -15 10 -15 -4 0 -9 3 -16 8 -16 4 0 15 -14 25 -31 13 -23 14 -30
4 -26 -11 4 -13 -3 -11 -29 2 -24 -1 -34 -9 -31 -7 2 -11 11 -11 20 1 9 -2 15
-6 12 -24 -15 -15 -430 11 -490 7 -15 8 -13 4 10 -13 82 -25 386 -16 403 6 11
7 22 4 26 -3 3 0 6 8 6 19 0 45 -40 27 -40 -8 -1 -6 -6 5 -14 14 -11 15 -15 5
-20 -10 -5 -10 -7 -1 -12 10 -4 9 -9 -2 -21 -12 -12 -13 -18 -4 -29 6 -8 16
-11 23 -8 6 3 3 -1 -7 -9 -12 -10 -14 -17 -7 -22 5 -3 7 -11 4 -17 -4 -6 2 -8
17 -4 20 6 21 5 7 -4 -10 -6 -18 -15 -18 -20 0 -5 8 -7 18 -4 9 3 6 -2 -8 -10
-19 -11 -21 -15 -8 -16 9 0 19 -4 22 -9 4 -5 -4 -7 -16 -4 -20 4 -19 2 7 -16
l30 -22 -30 7 -30 6 30 -22 c17 -12 22 -20 13 -17 -9 3 -19 -1 -22 -9 -3 -8
-2 -13 2 -10 4 2 14 1 22 -5 12 -7 9 -9 -10 -10 -25 -1 -25 -1 5 -15 l30 -15
-30 6 c-17 3 -25 2 -18 -3 7 -4 11 -18 8 -30 -2 -12 1 -21 7 -19 6 1 13 -4 16
-12 3 -9 0 -11 -9 -6 -8 5 -5 -1 5 -13 11 -12 15 -22 10 -22 -5 0 -3 -4 5 -9
20 -13 41 -2 41 20 0 13 -5 17 -17 12 -16 -6 -16 -5 1 12 18 18 18 19 0 26
-16 6 -17 8 -3 13 15 7 19 39 6 52 -4 4 -1 14 6 22 10 13 9 15 -5 9 -10 -3
-20 -2 -23 3 -4 6 1 10 9 10 21 0 20 16 -1 30 -16 10 -16 11 -1 6 13 -4 16 1
13 22 -2 16 -8 26 -16 24 -10 -2 -10 1 1 10 18 15 24 58 9 58 -6 0 -7 5 -4 11
11 17 13 59 3 59 -4 0 -6 11 -2 25 4 16 2 25 -6 25 -6 0 -8 5 -5 10 4 6 10 8
15 5 4 -3 7 3 5 12 -1 11 -10 17 -21 16 -18 -1 -18 -1 -1 12 12 9 16 21 12 39
-3 14 -7 38 -10 52 -3 14 -2 23 3 20 5 -3 10 17 11 44 1 28 -2 50 -6 50 -5 0
-7 21 -5 47 2 27 5 94 7 151 3 56 10 112 16 123 9 17 8 20 -3 13 -11 -6 -11
-5 1 9 7 9 10 17 6 17 -4 0 -3 6 3 13 10 12 11 15 13 40 0 6 4 3 9 -8 7 -17 9
-16 10 10 2 17 2 33 1 38 0 4 95 7 212 8 116 0 235 4 262 9 28 4 55 8 61 9 8
1 14 -30 18 -86z m-689 -563 c3 -5 1 -10 -4 -10 -6 0 -11 5 -11 10 0 6 2 10 4
10 3 0 8 -4 11 -10z m5 -40 c0 -5 -2 -10 -4 -10 -3 0 -8 5 -11 10 -3 6 -1 10
4 10 6 0 11 -4 11 -10z m1230 -218 c22 -10 44 -34 60 -62 81 -147 -7 -563
-191 -909 -93 -175 -199 -312 -278 -363 -80 -50 -117 -34 -166 74 -59 129 -89
305 -125 739 -12 136 -24 259 -29 275 -7 28 -5 29 88 72 223 102 199 94 206
72 10 -31 33 -23 52 17 15 30 28 40 73 56 139 50 249 60 310 29z m-1406 -131
c3 -22 9 -47 13 -57 5 -14 3 -16 -13 -10 -10 5 -68 20 -128 35 l-110 28 105
20 c57 11 109 21 115 22 6 0 14 -17 18 -38z m266 -25 c0 -3 -4 -8 -10 -11 -5
-3 -10 -1 -10 4 0 6 5 11 10 11 6 0 10 -2 10 -4z m90 -434 c0 -13 -12 -22 -22
-16 -10 6 -1 24 13 24 5 0 9 -4 9 -8z m-3483 -70 c22 -14 43 -80 43 -135 0
-62 -28 -179 -64 -267 -64 -160 -180 -292 -312 -356 -78 -39 -80 -39 -199 -39
-106 0 -126 3 -168 24 -133 65 -310 320 -362 520 -20 77 -22 175 -5 196 17 21
43 19 36 -2 -15 -53 -16 -77 -6 -152 23 -171 91 -312 205 -427 98 -99 198
-143 326 -144 277 -1 518 297 519 641 0 66 -4 101 -14 114 -14 19 -15 19 -35
1 -12 -11 -21 -23 -21 -28 0 -5 -34 -79 -75 -163 -64 -134 -84 -164 -145 -229
-90 -94 -149 -126 -235 -126 -47 0 -74 6 -111 26 -108 57 -172 131 -270 307
-31 56 -65 118 -76 137 l-20 35 37 -40 c20 -22 69 -87 108 -145 170 -249 292
-323 423 -260 101 49 260 257 300 391 11 37 28 66 56 92 41 39 46 41 65 29z"/>
<path d="M3972 7938 c-27 -27 -12 -199 48 -558 39 -239 55 -400 46 -472 -7
-54 -9 -58 -34 -58 -39 0 -129 45 -274 138 -198 127 -238 143 -238 99 0 -37
66 -126 174 -232 185 -185 337 -245 457 -182 127 67 159 263 94 581 -44 218
-154 542 -219 645 -30 47 -39 54 -54 39z"/>
<path d="M7540 7021 c0 -5 5 -13 10 -16 6 -3 10 -2 10 4 0 5 -4 13 -10 16 -5
3 -10 2 -10 -4z"/>
<path d="M7592 5880 c0 -14 2 -19 5 -12 2 6 2 18 0 25 -3 6 -5 1 -5 -13z"/>
<path d="M7688 5883 c6 -2 18 -2 25 0 6 3 1 5 -13 5 -14 0 -19 -2 -12 -5z"/>
<path d="M7710 5849 c0 -5 5 -7 10 -4 6 3 10 8 10 11 0 2 -4 4 -10 4 -5 0 -10
-5 -10 -11z"/>
<path d="M7602 5805 c0 -16 2 -22 5 -12 2 9 2 23 0 30 -3 6 -5 -1 -5 -18z"/>
<path d="M7691 5820 c-9 -5 -4 -7 13 -7 29 0 32 2 13 10 -8 3 -20 2 -26 -3z"/>
<path d="M8105 11550 c3 -5 8 -10 11 -10 2 0 4 5 4 10 0 6 -5 10 -11 10 -5 0
-7 -4 -4 -10z"/>
<path d="M8293 11502 c0 -12 5 -22 9 -22 11 0 10 12 -2 30 -7 12 -9 10 -7 -8z"/>
<path d="M8251 11277 c2 -1 13 -9 24 -17 19 -14 19 -14 6 3 -7 9 -18 17 -24
17 -6 0 -8 -1 -6 -3z"/>
<path d="M10075 11056 c-104 -48 -172 -166 -162 -283 9 -94 61 -193 119 -224
11 -6 1 8 -22 31 -48 48 -77 109 -81 171 -3 37 0 44 14 41 22 -4 22 15 0 21
-16 4 -16 5 1 6 10 0 25 -7 32 -16 10 -13 13 -14 14 -4 0 11 5 10 25 -3 28
-18 39 -21 30 -6 -3 6 1 7 9 4 9 -3 16 -1 16 5 0 6 3 11 8 10 20 -3 51 15 55
32 3 10 2 19 -3 19 -4 0 -3 19 3 41 8 34 7 43 -5 50 -10 5 -14 19 -12 36 4 24
3 25 -5 8 -9 -19 -10 -19 -10 -1 -1 12 -6 16 -16 12 -8 -3 -15 -3 -15 0 0 2
10 9 23 14 17 7 18 9 5 9 -45 2 1 34 62 44 22 4 22 4 -5 6 -16 0 -52 -10 -80
-23z"/>
<path d="M10228 11073 c7 -3 16 -2 19 1 4 3 -2 6 -13 5 -11 0 -14 -3 -6 -6z"/>
<path d="M8270 10855 c13 -14 26 -25 28 -25 3 0 -5 11 -18 25 -13 14 -26 25
-28 25 -3 0 5 -11 18 -25z"/>
<path d="M8340 10778 c41 -45 50 -53 50 -45 0 2 -21 23 -47 47 l-48 45 45 -47z"/>
<path d="M8415 10710 c10 -11 20 -20 23 -20 3 0 -3 9 -13 20 -10 11 -20 20
-23 20 -3 0 3 -9 13 -20z"/>
<path d="M8898 10503 c7 -3 16 -2 19 1 4 3 -2 6 -13 5 -11 0 -14 -3 -6 -6z"/>
<path d="M9440 10316 c-167 -54 -265 -219 -230 -386 15 -70 66 -154 115 -191
24 -18 22 -15 -8 16 -76 77 -116 184 -101 273 4 26 9 39 11 29 3 -12 11 -16
22 -12 10 3 24 -1 30 -9 7 -8 27 -18 44 -22 18 -4 26 -9 20 -11 -20 -7 -15
-20 8 -26 15 -4 23 0 26 14 4 14 11 18 24 14 11 -4 19 -2 19 5 0 6 -5 8 -10 5
-6 -4 -1 10 10 29 11 20 21 39 21 44 8 31 12 42 18 42 3 0 6 10 7 23 0 12 4
34 8 50 7 22 5 27 -9 27 -15 0 -16 2 -4 17 10 12 10 14 1 9 -7 -4 -15 0 -19
11 -4 10 -11 21 -16 24 -5 4 17 12 49 19 81 17 85 18 39 18 -22 0 -56 -5 -75
-12z m-190 -227 c0 -5 -4 -9 -8 -9 -5 0 -9 7 -9 15 0 8 4 12 9 9 4 -3 8 -9 8
-15z"/>
<path d="M8238 10203 c12 -2 30 -2 40 0 9 3 -1 5 -23 4 -22 0 -30 -2 -17 -4z"/>
<path d="M8105 10190 c-130 -26 -269 -103 -370 -205 -84 -85 -136 -171 -172
-285 -23 -73 -27 -103 -27 -205 0 -102 4 -132 27 -205 33 -106 85 -195 161
-274 l58 -61 -51 58 c-153 175 -219 400 -177 602 10 44 20 82 23 85 3 3 3 -5
0 -18 -4 -15 1 -27 16 -38 l22 -16 -22 5 c-13 3 -23 3 -23 1 0 -3 10 -9 23
-14 19 -8 19 -9 3 -9 -17 -1 -15 -4 9 -25 26 -23 21 -45 -7 -31 -7 4 -5 0 5
-8 9 -8 17 -19 17 -26 0 -6 4 -11 8 -11 4 0 13 -13 19 -30 7 -18 7 -30 2 -30
-6 0 -8 -4 -5 -9 3 -5 15 -7 26 -4 11 3 27 -1 36 -8 13 -10 17 -10 25 2 5 9 9
10 9 2 0 -18 -20 -27 -33 -14 -16 16 -37 14 -30 -4 3 -9 8 -14 11 -11 2 3 12
1 22 -4 25 -13 61 32 68 84 2 22 14 53 24 69 15 21 16 27 5 27 -8 0 -19 -10
-25 -22 -10 -20 -11 -21 -9 -3 4 32 37 74 53 68 8 -3 14 0 14 7 0 6 -4 8 -10
5 -5 -3 -10 -1 -10 6 0 7 -8 5 -21 -7 -22 -19 -22 -19 -8 4 8 12 22 25 31 28
10 3 18 9 18 14 0 5 -8 7 -17 4 -10 -4 -5 3 10 14 20 14 25 21 15 25 -10 4
-10 6 0 6 7 1 24 12 38 26 20 21 22 26 10 31 -13 5 -13 8 2 23 9 10 25 21 35
24 9 4 17 13 17 22 0 8 5 15 10 15 6 0 10 8 10 18 0 14 2 15 9 3 8 -12 12 -10
22 12 7 15 19 27 27 27 28 0 84 51 79 71 -6 24 9 25 22 2 8 -14 10 -7 5 27 -4
32 -3 41 5 30 5 -8 8 -17 5 -21 -2 -4 0 -10 5 -13 5 -4 7 12 5 36 -3 28 -1 38
4 29 7 -9 12 -10 16 -2 7 11 -5 15 -38 11 -11 -1 -15 3 -12 9 4 7 -1 11 -14
11 -12 0 -18 -4 -15 -10 4 -6 -1 -7 -11 -3 -12 4 -14 8 -6 11 10 3 10 7 1 18
-12 15 -49 20 -49 7 0 -5 -15 -9 -33 -10 l-32 -1 40 15 c22 8 76 24 120 33 78
18 61 26 -20 10z m-15 -208 c0 -4 -9 -13 -20 -20 -22 -13 -27 -3 -8 16 14 14
28 16 28 4z m-494 -258 c-4 -9 -9 -15 -11 -12 -3 3 -3 13 1 22 4 9 9 15 11 12
3 -3 3 -13 -1 -22z m31 -41 c-3 -10 -5 -4 -5 12 0 17 2 24 5 18 2 -7 2 -21 0
-30z m129 -221 c-14 -15 -15 -13 -3 17 8 23 13 28 15 16 2 -10 -3 -25 -12 -33z
m-76 8 c0 -5 -2 -10 -4 -10 -3 0 -8 5 -11 10 -3 6 -1 10 4 10 6 0 11 -4 11
-10z m50 -11 c0 -14 -17 -10 -23 5 -4 10 -1 13 9 9 7 -3 14 -9 14 -14z"/>
<path d="M7595 9510 c3 -5 8 -10 11 -10 2 0 4 5 4 10 0 6 -5 10 -11 10 -5 0
-7 -4 -4 -10z"/>
<path d="M7740 9389 c0 -6 -9 -9 -20 -6 -11 3 -18 1 -14 -4 3 -5 13 -9 22 -9
13 0 14 -2 4 -9 -11 -7 -10 -9 3 -14 9 -4 13 -3 10 3 -3 6 0 10 7 10 9 0 9 3
-2 10 -10 6 -11 10 -2 10 6 0 12 5 12 10 0 6 -4 10 -10 10 -5 0 -10 -5 -10
-11z"/>
<path d="M7805 8940 c10 -11 20 -20 23 -20 3 0 -3 9 -13 20 -10 11 -20 20 -23
20 -3 0 3 -9 13 -20z"/>
<path d="M1730 5939 c-160 -27 -334 -105 -460 -206 -365 -295 -457 -832 -284
-1673 63 -306 152 -625 354 -1270 200 -639 272 -877 330 -1104 192 -753 206
-1180 49 -1569 -21 -53 -39 -102 -39 -108 0 -37 98 81 149 181 167 323 179
811 35 1479 -71 330 -142 585 -374 1341 -313 1018 -394 1379 -407 1795 -13
415 84 685 313 878 87 74 157 116 313 186 165 75 171 94 21 70z"/>
<path d="M3137 3673 c-12 -11 -8 -134 7 -233 45 -298 147 -675 326 -1210 124
-370 354 -985 424 -1133 80 -169 104 -176 93 -26 -12 156 -88 477 -201 849
-146 483 -522 1554 -596 1699 -21 41 -43 64 -53 54z"/>
<path d="M4177 2835 c-68 -68 35 -418 164 -560 54 -58 79 -70 106 -50 27 20
24 156 -6 255 -49 159 -144 320 -211 355 -36 18 -35 18 -53 0z"/>
<path d="M4560 1732 c-50 -50 -63 -147 -35 -255 31 -120 100 -217 155 -217 35
0 47 14 61 78 28 121 -74 422 -143 422 -5 0 -22 -13 -38 -28z"/>
</g>
</svg>
