<?xml version="1.0" encoding="UTF-8" standalone="no"?>
<!-- Created with Inkscape (http://www.inkscape.org/) -->

<svg
   version="1.1"
   id="svg2"
   width="1200"
   height="613.33331"
   viewBox="0 0 1200 613.33331"
   sodipodi:docname="laser.svg"
   inkscape:version="1.2-alpha1 (b6a15bbbed, 2022-02-23)"
   xmlns:inkscape="http://www.inkscape.org/namespaces/inkscape"
   xmlns:sodipodi="http://sodipodi.sourceforge.net/DTD/sodipodi-0.dtd"
   xmlns="http://www.w3.org/2000/svg"
   xmlns:svg="http://www.w3.org/2000/svg">
  <defs
     id="defs6" />
  <sodipodi:namedview
     id="namedview4"
     pagecolor="#ffffff"
     bordercolor="#000000"
     borderopacity="0.25"
     inkscape:pageshadow="2"
     inkscape:pageopacity="0.0"
     inkscape:pagecheckerboard="0"
     inkscape:deskcolor="#d1d1d1"
     showgrid="false"
     inkscape:zoom="0.35649967"
     inkscape:cx="615.70885"
     inkscape:cy="244.0395"
     inkscape:window-width="1920"
     inkscape:window-height="1009"
     inkscape:window-x="-8"
     inkscape:window-y="-8"
     inkscape:window-maximized="1"
     inkscape:current-layer="g8" />
  <g
     inkscape:groupmode="layer"
     inkscape:label="Image"
     id="g8">
    <path
       style="fill:#ff0000;stroke-width:1.33333"
       d="m 358.22223,608.72118 c -0.4889,-0.48888 -0.8889,-38.19554 -0.8889,-83.79257 0,-94.0871 -0.60345,-111.31853 -3.89845,-111.31853 -1.70812,0 -4.74297,9.53798 -14.50965,45.60116 -6.79238,25.08064 -12.5675,45.81889 -12.83362,46.085 C 325.22635,506.16151 304,499.89127 304,498.77041 c 0,-0.59838 5.40093,-21.02333 12.00208,-45.38874 6.78864,-25.05753 11.49913,-44.80371 10.84423,-45.45861 -0.65491,-0.65491 -3.04031,2.21108 -5.49155,6.59792 -5.72537,10.24638 -91.03988,160.98174 -91.38432,161.45963 -0.21867,0.30337 -19.01124,-9.89774 -20.37937,-11.06248 -0.22491,-0.19146 20.92509,-37.94118 47,-83.88825 C 282.66599,435.08282 304,396.98103 304,396.35925 c 0,-0.62179 -1.01881,-1.52148 -2.26403,-1.99931 -1.70664,-0.65491 -10.40494,7.26725 -35.33166,32.17901 l -33.06764,33.0478 -8.32334,-8.32333 -8.32333,-8.32334 33.1396,-33.15949 c 18.22677,-18.23772 32.51925,-33.54288 31.76107,-34.01146 -0.75819,-0.46859 -38.05575,20.76376 -82.88346,47.18299 -44.82772,26.41924 -82.14724,48.17515 -82.93229,48.34647 -0.78505,0.17132 -4.02356,-3.88851 -7.1967,-9.02184 -4.42455,-7.15779 -5.39743,-9.68323 -4.17378,-10.83443 0.87756,-0.8256 38.07777,-22.96338 82.66713,-49.19509 54.91151,-32.30416 80.63436,-48.13121 79.71659,-49.04898 -0.91776,-0.91776 -15.4614,2.20516 -45.07157,9.6781 -24.04412,6.0682 -44.25319,11.11575 -44.90904,11.21675 -1.1636,0.17921 -6.04988,-16.33708 -6.11043,-20.65409 -0.0244,-1.74463 8.61224,-4.33003 43.96955,-13.16226 31.17944,-7.7886 44,-11.52665 44,-12.82892 0,-1.54442 -15.32254,-1.83774 -96,-1.83774 H 66.666671 v -12 -12 h 95.157769 95.15777 l 0.75664,-5.64115 c 0.41615,-3.10262 0.64515,-5.71969 0.5089,-5.8157 -0.13627,-0.096 -19.72763,-5.98738 -43.53639,-13.09194 -23.80875,-7.10456 -43.49529,-13.12402 -43.74787,-13.37661 -0.60472,-0.60472 5.11642,-19.77739 6.29398,-21.09237 0.50128,-0.55978 20.0558,4.69022 43.4545,11.66666 23.39871,6.97644 43.01071,12.68444 43.58223,12.68444 5.44337,0 -9.88291,-10.02552 -77.96087,-50.99723 -43.45,-26.14975 -80.027,-48.323 -81.28222,-49.27388 -2.09899,-1.59007 -1.8174,-2.47826 3.50711,-11.06222 3.34209,-5.38797 6.55271,-9.14833 7.59519,-8.89568 0.99322,0.24071 37.71836,22.0707 81.61143,48.51108 l 79.80559,48.07344 2.77334,-2.77335 2.77335,-2.77334 -7.51329,-8.40442 c -4.13231,-4.62241 -18.02907,-19.80439 -30.8817,-33.73773 l -23.36841,-25.33333 7.85707,-7.66667 c 4.32138,-4.21666 8.42538,-7.66666 9.12001,-7.66666 0.69463,0 14.70436,14.69076 31.13275,32.64613 26.8984,29.39856 33.20312,35.37163 33.20312,31.45653 0,-1.12965 -19.84828,-38.60341 -69.26303,-130.769326 -10.41919,-19.43333 -19.0474,-35.91506 -19.1738,-36.62606 -0.25308,-1.42343 17.74645,-11.48779 19.58016,-10.94817 1.18447,0.34856 5.72415,8.71936 58.19,107.297536 19.87528,37.3437 32.06469,58.8778 33.33333,58.8874 5.24344,0.0396 5.07254,-1.61242 -4.753,-45.94404 -5.36361,-24.2 -9.3384,-44.37479 -8.83285,-44.83286 1.69532,-1.53609 20.73684,-5.21755 21.65188,-4.18614 0.4972,0.56045 5.14493,20.42818 10.32828,44.15052 5.18336,23.72232 9.71988,43.4271 10.08117,43.7884 0.3613,0.36129 1.90211,0.26168 3.42404,-0.22136 C 359.99947,198.76389 360,198.74555 360,103.52025 V 8.2767736 h 12 12 V 104.94343 c 0,119.95739 -1.37063,116.16674 19.40483,53.66666 7.8614,-23.64999 14.3871,-43.12573 14.5015,-43.27941 0.271,-0.36399 21.2084,6.28307 21.8678,6.94244 0.2769,0.27691 -5.9589,19.89101 -13.8574,43.58689 -7.8985,23.69588 -14.306,43.36842 -14.2388,43.71675 0.6891,3.57411 9.0172,-8.30637 49.159,-70.12821 25.573,-39.38462 48.8897,-75.410156 51.8149,-80.056756 2.9253,-4.6466 5.6691,-8.44836 6.0974,-8.44836 0.4284,0 5.0532,2.73467 10.2773,6.07703 l 9.4985,6.07703 -8.3872,12.92297 c -78.4584,120.888736 -95.4712,147.447206 -95.4712,149.038866 0,1.03625 0.6103,1.88409 1.3562,1.88409 0.7458,0 16.7845,-14.10274 35.6415,-31.33943 l 34.2854,-31.33944 7.3585,8.26074 c 4.0471,4.54342 7.3584,8.70567 7.3584,9.24946 0,0.54378 -15.15,14.86268 -33.6666,31.81976 -31.2178,28.58837 -37.3688,35.0197 -31.3334,32.76099 1.2834,-0.48028 39.7746,-20.73578 85.5362,-45.01223 94.0967,-49.91823 83.3699,-46.20659 90.8979,-31.4519 l 3.8851,7.61462 -5.6596,3.2105 c -4.9215,2.7918 -48.3257,25.85603 -87.6596,46.58072 -6.9666,3.67068 -16.2666,8.60203 -20.6666,10.95855 -4.4,2.35652 -18.95,10.12072 -32.3334,17.25378 -14.0949,7.51235 -24.3333,13.76822 -24.3333,14.8682 0,1.04446 0.45,1.89044 1,1.87996 0.55,-0.0107 20.7866,-5.09388 44.9702,-11.29644 24.1836,-6.20257 44.357,-10.844 44.8297,-10.31428 1.7359,1.94532 5.5066,20.51964 4.3679,21.51632 -0.992,0.86835 -85.3308,22.78012 -87.681,22.78012 -0.4511,0 -0.8201,0.80099 -0.8201,1.77998 0,1.46674 23.6191,1.936 134.2207,2.66666 73.8214,0.48768 179.9224,0.8867 235.7799,0.8867 55.8575,0 143.9582,0.3986 195.77927,0.88577 L 1132,302.0483 v 11.29132 11.29132 l -330.82897,-0.99717 c -278.4342,-0.83924 -330.7333,-0.7104 -330.2253,0.81356 0.3639,1.09166 18.5629,7.0278 45.8289,14.94838 24.874,7.22572 45.3411,13.24566 45.4825,13.37764 0.7156,0.66768 -6.0118,21.41771 -7.0482,21.73964 -0.6649,0.20652 -21.3089,-5.51341 -45.8756,-12.71097 -40.9084,-11.9854 -48.9488,-13.88316 -45.7828,-10.80612 0.6139,0.59665 38.3161,23.10571 83.7828,50.02012 45.4667,26.91441 82.8815,49.12333 83.144,49.35316 0.4415,0.38642 -8.0919,15.29594 -10.7441,18.7721 -0.8188,1.07327 -11.4212,-4.53981 -35.4507,-18.7683 -18.8554,-11.16472 -56.3479,-33.36208 -83.3166,-49.32744 -52.9202,-31.32849 -60.1706,-34.36361 -45.5406,-19.06388 4.3494,4.54852 19.458,20.03757 33.5747,34.4201 14.1166,14.38255 25.6666,26.77619 25.6666,27.54142 0,0.76524 -3.7406,4.80017 -8.3125,8.96652 l -8.3126,7.57518 -4.5919,-5.10406 c -12.6349,-14.04408 -61.7701,-63.21688 -62.806,-62.85411 -0.6545,0.22919 9.6418,19.31671 22.8805,42.41671 26.5767,46.37296 65.1055,113.57514 70.0563,122.19258 l 3.1747,5.52592 -9.4947,5.47408 c -5.2221,3.01075 -9.9534,5.47408 -10.5142,5.47408 -0.5607,0 -22.5383,-37.56885 -48.8392,-83.48635 -26.3009,-45.91749 -48.6153,-83.79161 -49.5876,-84.16471 -0.9723,-0.37311 -2.0433,-0.40282 -2.3801,-0.066 -0.3368,0.33678 4.7878,20.9609 11.3881,45.83137 6.6002,24.87048 12.0016,45.89484 12.0031,46.7208 0,1.1994 -21.3089,7.69402 -22.1623,6.75404 -0.1277,-0.14068 -5.6011,-20.62523 -12.1631,-45.5212 -6.6106,-25.08027 -12.66252,-45.50927 -13.57153,-45.81228 -1.29448,-0.43149 -1.43591,19.97417 -0.67039,96.72266 l 0.97022,97.26953 -7.20006,0.8645 c -9.29217,1.11568 -15.19468,1.11524 -16.31114,-10e-4 z"
       id="path1090" />
  </g>
</svg>
