<?xml version="1.0" encoding="UTF-8" standalone="no"?>
<!-- Created with Inkscape (http://www.inkscape.org/) -->

<svg
   width="105.64625mm"
   height="44.448837mm"
   viewBox="0 0 105.64625 44.448837"
   version="1.1"
   id="svg5"
   inkscape:version="1.1.1 (3bf5ae0d25, 2021-09-20)"
   sodipodi:docname="laser_pointing.svg"
   xmlns:inkscape="http://www.inkscape.org/namespaces/inkscape"
   xmlns:sodipodi="http://sodipodi.sourceforge.net/DTD/sodipodi-0.dtd"
   xmlns="http://www.w3.org/2000/svg"
   xmlns:svg="http://www.w3.org/2000/svg">
  <sodipodi:namedview
     id="namedview7"
     pagecolor="#ffffff"
     bordercolor="#666666"
     borderopacity="1.0"
     inkscape:pageshadow="2"
     inkscape:pageopacity="0.0"
     inkscape:pagecheckerboard="0"
     inkscape:document-units="mm"
     showgrid="false"
     fit-margin-top="0"
     fit-margin-left="0"
     fit-margin-right="0"
     fit-margin-bottom="0"
     inkscape:zoom="0.7071068"
     inkscape:cx="33.234018"
     inkscape:cy="314.66251"
     inkscape:window-width="1920"
     inkscape:window-height="1017"
     inkscape:window-x="-8"
     inkscape:window-y="-8"
     inkscape:window-maximized="1"
     inkscape:current-layer="layer1" />
  <defs
     id="defs2" />
  <g
     inkscape:label="Layer 1"
     inkscape:groupmode="layer"
     id="layer1"
     transform="translate(-23.773215,-82.878573)">
    <path
       style="fill:#7d007c;stroke-width:0.264583"
       d="m 44.83383,126.78615 -0.490885,-0.54242 0.310513,-0.82264 0.310514,-0.82265 -0.455948,-0.33453 -0.455948,-0.33453 -0.452359,0.40804 -0.45236,0.40804 -0.67245,-0.16877 -0.67245,-0.16878 -0.471539,-0.98706 -0.471539,-0.98707 -1.049484,0.0855 -1.049485,0.0855 -0.470782,0.42551 -0.470781,0.42551 -1.345733,-0.34491 -1.345732,-0.3449 -0.167861,0.25727 -0.167861,0.25726 -0.613055,0.32299 -0.613055,0.323 -0.643716,-0.42178 -0.643716,-0.42178 v -0.55546 -0.55546 l -0.393439,0.32652 -0.393439,0.32652 -0.650828,-0.16334 -0.650828,-0.16335 -0.467988,-0.79224 -0.467987,-0.79224 h -0.585513 -0.585514 l -0.415773,-0.41577 -0.415774,-0.41578 v -0.51026 -0.51027 l 0.551215,-0.55122 0.551215,-0.55121 -0.166373,-0.16638 -0.166373,-0.16637 -0.513544,0.32071 -0.513543,0.32072 H 26.3815 25.769368 l -0.3175,-0.3175 -0.3175,-0.3175 v -0.73859 -0.73859 l 0.529167,-0.33047 0.529166,-0.33047 v -0.37855 -0.37854 l 0.434464,-0.48008 0.434465,-0.48007 0.02856,-1.12003 0.02856,-1.12003 0.661458,-0.33506 0.661459,-0.33505 0.718295,-0.004 0.718295,-0.004 0.287167,0.53657 0.287168,0.53658 0.255624,-0.15798 0.255624,-0.15799 -0.159413,-0.25793 -0.159414,-0.25794 0.42578,-0.64983 0.425781,-0.64982 h 0.483585 0.483585 l 0.817631,-0.28502 0.81763,-0.28503 0.08175,-0.6854 0.08175,-0.68539 1.058333,-0.6056 1.058334,-0.60561 0.46561,-0.0115 0.465611,-0.0115 0.453086,0.52917 0.453087,0.52917 h 0.463817 0.463816 l -0.265064,-0.69718 -0.265064,-0.69717 0.428537,-0.65403 0.428536,-0.65403 -0.289215,-0.28921 -0.289216,-0.28922 v -0.56753 -0.56754 l 0.520467,-0.47101 0.520467,-0.47102 0.537866,0.14066 0.537867,0.14065 v -0.3532 -0.35321 l 0.415774,-0.41577 0.415774,-0.41578 h 0.651868 0.651869 l 0.640514,-0.41968 0.640514,-0.41968 0.276218,0.17071 0.276219,0.17071 v -0.27409 -0.274107 l 0.648504,-0.42491 0.648503,-0.42492 0.528587,0.16777 0.528588,0.16777 0.176236,0.58177 0.176235,0.581787 0.523731,0.5728 0.52373,0.5728 -0.175095,0.55168 -0.175095,0.55167 h 0.290717 0.290717 l 0.157461,-0.41033 0.157461,-0.41034 -0.624193,-0.66442 -0.624193,-0.66443 0.435029,-0.757987 0.435029,-0.758 -0.375765,-0.14419 -0.375765,-0.1442 -0.304274,-0.66781 -0.304274,-0.66781 0.479862,-0.53024 0.479862,-0.53024 h 0.579444 0.579444 l 0.49723,0.54944 0.497231,0.54943 -0.443918,0.77348 -0.443917,0.77348 h 0.236662 0.236664 l 0.16352,-0.26458 0.163521,-0.26458 h 1.407197 1.407197 l 0.328115,0.39535 0.328115,0.39536 -0.129402,0.59683 -0.129403,0.596837 -0.196561,0.46807 -0.196565,0.46807 0.857393,-0.46807 0.857393,-0.46807 0.616035,-0.595317 0.616037,-0.59531 h 0.28316 0.283157 l 0.251486,-0.66146 0.251487,-0.66146 h 1.297067 1.297069 l 0.329377,0.39688 0.329377,0.39687 h 0.629061 0.629062 v -0.35587 -0.35586 l 0.463021,-0.40659 0.463021,-0.40659 0.617823,-0.18856 0.617821,-0.18856 0.613055,0.57594 0.613056,0.57593 0.617643,-0.0879 0.617643,-0.0879 0.206217,-1.05833 0.206216,-1.05834 0.06193,-0.92223 0.06193,-0.92223 0.775319,-0.37184 0.77532,-0.37185 0.601051,0.69876 0.601054,0.69877 h 0.277273 0.277275 v -0.74083 -0.74084 l 0.3175,-0.3175 0.3175,-0.3175 h 0.725831 0.725829 l 0.405794,0.57935 0.405792,0.57935 0.159517,-0.15952 0.15952,-0.15951 -0.436822,-0.66668 -0.436819,-0.66667 0.292695,-0.54691 0.292698,-0.54691 h 0.922404 0.922406 l 0.296442,0.65062 0.296442,0.65062 -0.452255,0.73845 -0.452255,0.73844 0.745453,-0.86228 0.745453,-0.86228 0.344493,0.002 0.344493,0.002 0.278648,-0.79934 0.278651,-0.79933 0.49084,-0.26269 0.490839,-0.26269 1.024114,0.2301 1.024115,0.2301 0.476427,0.26663 0.47643,0.26662 0.758913,-0.28646 0.758912,-0.28646 0.79375,0.29961 0.79375,0.29961 v -0.76398 -0.76397 l 0.765977,-0.3961 0.765974,-0.3961 1.092861,-0.17476 1.092862,-0.17475 0.484476,0.43844 0.484478,0.43845 0.334915,-0.40355 0.334917,-0.40354 h 0.588055 0.588053 l 0.437883,0.48385 0.437882,0.48386 v 0.42657 0.42657 l -0.264583,0.16352 -0.264583,0.16352 v 0.22932 0.22932 l 1.055638,-0.44337 1.05565,-0.44337 0.003,-0.4101 0.003,-0.41011 0.3175,-0.3175 0.3175,-0.3175 h 0.47625 0.47625 v -0.91673 -0.91673 l 0.5052,-0.27038 0.50521,-0.27038 1.26999,0.23726 1.27001,0.23726 0.53263,-0.37306 0.53261,-0.37307 h 0.338004 0.33801 l 0.55528,0.55528 0.55529,0.55529 -0.18226,-0.57425 -0.18226,-0.57424 0.46173,-0.51021 0.46173,-0.51021 h 0.70803 0.70804 l 0.3405,0.63623 0.3405,0.63623 -0.16856,0.27273 -0.16855,0.27273 0.61239,0.6124 0.6124,0.61239 0.84786,0.0577 0.84788,0.0577 0.46302,0.0144 0.46302,0.0144 0.97325,-0.16502 0.97324,-0.16501 0.34717,0.5559 0.34717,0.5559 h 0.20094 0.20094 v -0.47625 -0.47625 l 0.3175,-0.3175 0.3175,-0.3175 h 0.87312 0.87313 v -0.36857 -0.36856 l 0.41851,-0.1606 0.41851,-0.1606 h 0.41325 0.41323 l 0.88522,0.85989 0.88522,0.8599 0.003,0.30242 0.003,0.30242 0.38162,0.14644 0.38162,0.14644 0.93906,-0.15239 0.93906,-0.15238 0.39911,0.33123 0.39912,0.33124 v -0.67496 -0.67496 l 0.43013,-0.43013 0.43014,-0.43014 0.69434,0.0805 0.69437,0.0805 0.45913,-0.72761 0.45913,-0.7276 h 0.51276 0.51275 l 0.81405,0.68498 0.81405,0.68498 v 0.73783 0.73783 l -0.39131,0.32477 -0.39131,0.32476 0.25902,0.48399 0.25902,0.48399 v 0.7895 0.78951 l 0.16436,0.4283 0.16435,0.4283 0.74855,0.38709 0.74855,0.38709 h 0.6422 0.6422 l 0.3161,0.38087 0.3161,0.38088 -0.0853,0.71691 -0.0853,0.71692 -0.39688,0.19446 -0.39687,0.19446 -0.72761,0.33996 -0.7276,0.33995 v 0.8791 0.87909 l -0.52917,0.33047 -0.52917,0.33047 -0.008,0.39937 -0.008,0.39938 -0.64261,0.730167 -0.64261,0.73017 -0.68428,0.26016 -0.68428,0.26017 0.17462,0.9308 0.17461,0.9308 -0.32697,0.39397 -0.32697,0.39397 h -0.74352 -0.74352 l -0.16478,0.51918 -0.16478,0.51917 0.2939,0.54916 0.2939,0.54915 -0.16459,0.51856 -0.16458,0.51856 -0.64323,0.16144 -0.64324,0.16144 -0.3424,-0.1314 -0.3424,-0.13139 -0.3858,0.30739 -0.38579,0.30739 -0.28226,0.50539 -0.28227,0.50539 -0.44534,0.28091 -0.44534,0.28092 -0.46302,-0.28487 -0.46302,-0.28488 -0.24353,-0.53268 -0.24353,-0.53269 -0.74865,-0.28258 -0.74866,-0.28259 v 0.31025 0.31025 l -0.52917,0.33047 -0.52917,0.33047 v 0.53302 0.53303 l 0.64905,-0.42528 0.64904,-0.42526 0.81706,0.48265 0.81705,0.48265 0.16037,0.63892 0.16036,0.63893 -0.26409,0.42207 -0.26408,0.42207 -0.69769,0.0834 -0.6977,0.0834 -0.5805,-0.4066 -0.58051,-0.40661 -0.32312,0.26817 -0.32311,0.26816 -0.75569,0.21673 -0.75569,0.21673 -0.64542,-0.23876 -0.64541,-0.23875 -0.76217,0.5635 -0.76218,0.5635 -0.60975,-0.15304 -0.60976,-0.15304 -0.29976,1.19048 -0.29977,1.19047 0.43961,0.67093 0.43961,0.67093 -0.34758,0.64946 -0.34758,0.64947 h -1.23561 -1.2356 l -0.96682,-0.72761 -0.96682,-0.7276 -0.1706,-0.66146 -0.1706,-0.66146 -0.25808,-0.32782 -0.25808,-0.32781 -0.21158,0.13076 -0.21159,0.13077 -0.18073,1.12309 -0.18074,1.12309 -0.37755,0.59532 -0.37755,0.59531 h -0.482064 -0.48206 l -0.48083,-0.53131 -0.48083,-0.53131 -0.47695,0.43164 -0.47695,0.43163 -0.7313,-0.1398 -0.7313,-0.13979 -0.73318,0.52207 -0.73318,0.52207 v 0.52854 0.52855 l 0.2658,0.49665 0.2658,0.49665 -0.30827,0.67658 -0.30827,0.67658 h -0.73238 -0.73238 l -0.43864,-0.43864 -0.438635,-0.43863 0.119671,-0.62601 0.119669,-0.62602 -0.2291,-0.14159 -0.2291,-0.14159 v -0.69116 -0.69115 l 0.41411,-0.45759 0.414115,-0.45759 -0.253781,-0.15684 -0.253777,-0.15684 -0.402302,1.00545 -0.402301,1.00545 -0.406795,0.33761 -0.406791,0.33761 -0.548913,-0.17422 -0.548912,-0.17422 -0.420257,-0.64139 -0.420256,-0.64139 h -0.234153 -0.234154 v 0.23441 0.23441 l 0.953439,0.92607 0.953437,0.92607 -0.182637,0.57544 -0.182636,0.57544 -0.632862,0.28835 -0.632865,0.28835 -1.06398,-0.73734 -1.063979,-0.73733 v -0.2286 -0.2286 h -0.557234 -0.557234 l -0.520303,0.66145 -0.520303,0.66146 h -0.486444 -0.486442 l -0.65637,-0.78005 -0.656368,-0.78005 -0.469659,0.51897 -0.46966,0.51897 -1.14645,0.57256 -1.14645,0.57257 v 0.71445 0.71446 l -0.357407,0.29662 -0.35741,0.29662 -1.163944,-0.0369 -1.163947,-0.0369 -0.303972,-0.23755 -0.303975,-0.23754 -2.005025,-0.0846 -2.005029,-0.0846 -0.336833,-0.26481 -0.336833,-0.26482 -0.909034,-0.17274 -0.909037,-0.17273 0.538879,0.59853 0.538883,0.59852 0.177718,0.5003 0.17772,0.5003 -0.408977,0.62418 -0.408977,0.62418 h -0.7752 -0.7752 l -0.64044,0.2918 -0.64044,0.29181 -0.544716,-0.29153 -0.544716,-0.29152 -0.177702,-0.55989 -0.1777,-0.55989 -1.254347,0.1664 -1.254345,0.1664 -0.958625,-0.40054 -0.958622,-0.40054 h -0.244398 -0.244399 l -0.161591,0.64382 -0.161589,0.64383 -0.541507,0.17186 -0.541507,0.17187 -0.648502,-0.42491 -0.648504,-0.42492 v -0.21266 -0.21266 l -0.73356,0.10766 -0.733563,0.10767 -0.491146,-0.54272 -0.491148,-0.54271 -0.514287,0.65381 -0.514286,0.65381 h -0.396121 -0.395066 l -0.577919,-0.31544 -0.577918,-0.31544 -0.992188,-0.0297 -0.992187,-0.0297 v 0.21282 0.21282 h -1.005417 -1.005417 l -0.31309,-0.31309 -0.31309,-0.3131 -0.185209,0.18521 -0.185208,0.1852 0.31309,0.3131 0.313091,0.31309 v 0.73153 0.73152 l -0.511773,0.27389 -0.511772,0.2739 H 45.697978 45.324716 Z M 98.423956,115.539 v -0.38126 h -0.22049 -0.22049 l -0.15815,0.15816 -0.15816,0.15816 0.14178,0.36949 0.14179,0.36949 0.23686,-0.14639 0.23686,-0.14639 z m -16.647866,6.07899 0.02088,-0.50712 0.138964,0.34726 0.138965,0.34727 -0.159851,0.15985 -0.159853,0.15985 0.02087,-0.50711 z m 25.90761,-5.27044 -0.33005,-0.39769 v -0.70615 -0.70616 l 0.48051,-0.35136 0.48052,-0.35136 h 0.72154 0.72154 l 0.43879,0.16837 0.43878,0.16838 0.25134,0.66108 0.25135,0.66109 -0.41001,0.62575 -0.41,0.62574 h -1.15213 -1.15213 z m -83.594387,-5.01027 -0.316098,-0.38087 0.08526,-0.71692 0.08526,-0.71692 0.422069,-0.26408 0.42207,-0.26409 0.69838,0.17529 0.69838,0.17528 0.16768,0.66809 0.16768,0.66809 -0.469241,0.5185 -0.469241,0.51851 h -0.588054 -0.588054 z m 4.886048,-1.37218 -0.430139,-0.43014 0.08051,-0.68599 0.08051,-0.686 0.709523,-0.39644 0.709523,-0.39645 0.547248,0.49526 0.547248,0.49525 v 0.50555 0.50556 l -0.273893,0.51177 -0.273892,0.51177 h -0.633251 -0.63325 z m 26.206101,-12.568427 -0.678344,-0.53359 v -0.46896 -0.46895 l 0.483854,-0.43788 0.483854,-0.43789 0.508334,0.008 0.508333,0.008 0.463021,0.35149 0.463021,0.35148 v 0.66604 0.66604 l -0.330729,0.25591 -0.33073,0.2559 -0.446135,0.15858 -0.446132,0.15858 -0.678347,-0.53358 z m 62.615948,-9.63831 -0.58804,-0.41188 v -0.62755 -0.62756 l 0.41578,-0.41578 0.41577,-0.41577 h 0.58965 0.58964 l 0.3175,0.3175 0.3175,0.3175 v 0.72194 0.72193 l -0.41578,0.41577 -0.41577,0.41578 h -0.3191 -0.31911 z m -27.094516,-1.5725 -0.301382,-0.66146 0.301382,-0.66145 0.301379,-0.66146 h 0.746506 0.746507 l 0.3175,0.3175 0.3175,0.3175 v 0.58964 0.58964 l -0.41578,0.41578 -0.41577,0.41577 h -0.648232 -0.648231 z m 5.273662,-0.94723 -0.46302,-0.26969 v -0.6073 -0.6073 l 0.48385,-0.43789 0.48386,-0.43788 h 0.52156 0.52156 l 0.3175,0.3175 0.3175,0.3175 v 0.68792 0.68791 l -0.3175,0.3175 -0.3175,0.3175 -0.54239,-0.008 -0.5424,-0.008 -0.46302,-0.26968 z"
       id="path632" />
  </g>
</svg>
