<?xml version="1.0" encoding="UTF-8" standalone="no"?>
<!-- Created with Inkscape (http://www.inkscape.org/) -->

<svg
   version="1.1"
   id="svg9"
   width="348.44708"
   height="199.54634"
   viewBox="0 0 348.44708 199.54634"
   sodipodi:docname="OWIS.svg"
   inkscape:version="1.1.1 (3bf5ae0d25, 2021-09-20)"
   xmlns:inkscape="http://www.inkscape.org/namespaces/inkscape"
   xmlns:sodipodi="http://sodipodi.sourceforge.net/DTD/sodipodi-0.dtd"
   xmlns="http://www.w3.org/2000/svg"
   xmlns:svg="http://www.w3.org/2000/svg">
  <defs
     id="defs13" />
  <sodipodi:namedview
     id="namedview11"
     pagecolor="#ffffff"
     bordercolor="#666666"
     borderopacity="1.0"
     inkscape:pageshadow="2"
     inkscape:pageopacity="0.0"
     inkscape:pagecheckerboard="0"
     showgrid="false"
     inkscape:zoom="0.65680804"
     inkscape:cx="163.67035"
     inkscape:cy="-95.157179"
     inkscape:window-width="1920"
     inkscape:window-height="1017"
     inkscape:window-x="-8"
     inkscape:window-y="-8"
     inkscape:window-maximized="1"
     inkscape:current-layer="g15"
     fit-margin-top="0"
     fit-margin-left="0"
     fit-margin-right="0"
     fit-margin-bottom="0" />
  <g
     inkscape:groupmode="layer"
     inkscape:label="Image"
     id="g15"
     transform="translate(225.98184,38.706545)">
    <g
       id="g369"
       transform="matrix(6.2222694,0,0,6.2222694,-225.98184,-38.253989)">
      <path
         style="fill:#cfcfcf;stroke-width:0.32"
         d="M 13.691682,24.22315 C 5.2021082,19.413777 0.02319471,16.298134 0.02291838,16 0.02264145,15.701221 5.1541274,12.620463 13.614681,7.84 21.090395,3.616 27.411026,0.11542718 27.660529,0.06094929 28.150481,-0.04602982 56,15.617456 56,16 c 0,0.313956 -27.712267,16.004362 -28.229307,15.98315 -0.225881,-0.0093 -6.561436,-3.501267 -14.079011,-7.76 z m 2.207486,-4.084466 c 3.079999,-1.16698 3.853879,-5.368647 1.373267,-7.455944 -2.070354,-1.742089 -6.02957,-1.171472 -7.169715,1.033325 -0.643041,1.243504 -0.6437235,3.323047 -0.0015,4.564973 0.876855,1.695651 3.774872,2.624168 5.797946,1.857646 z M 13.22002,18.308587 c -0.609354,-0.38746 -1.102804,-2.025316 -0.895098,-2.970997 0.421467,-1.918925 2.457716,-2.501058 3.279603,-0.93759 0.474927,0.903451 0.331117,2.986394 -0.254941,3.69255 -0.415486,0.50063 -1.507728,0.611435 -2.129564,0.216037 z m 30.547958,1.53007 c 2.316732,-1.412512 1.999104,-3.446186 -0.726506,-4.65158 -2.238752,-0.990082 -2.329517,-1.5835 -0.20369,-1.331727 1.432756,0.169689 1.586855,0.120691 1.92,-0.610484 0.480711,-1.05504 0.521274,-0.98274 -0.795091,-1.417179 -1.37784,-0.454728 -3.362371,-0.244965 -4.454883,0.470875 -0.59169,0.38769 -0.787808,0.798408 -0.787808,1.649852 0,1.624726 0.474093,2.296188 1.929021,2.732096 1.568518,0.469939 2.241302,1.15028 1.570403,1.58804 C 41.966739,18.433425 41.472,18.493324 41.12,18.40166 40.768,18.31 40.183126,18.15532 39.820278,18.057937 c -0.493004,-0.132315 -0.755824,0.03386 -1.04,0.657558 -0.505654,1.109789 -0.527238,1.063773 0.659722,1.406495 1.708038,0.493179 3.21633,0.394438 4.327978,-0.283333 z M 25.447905,18.8 c 0.380921,-2.311081 0.688743,-2.439277 1.100029,-0.458121 L 26.925375,20.16 h 1.681823 1.681823 l 1.042124,-3.723235 c 0.573167,-2.047779 1.117543,-3.919779 1.209725,-4.16 C 32.667296,11.947304 32.351859,11.84 31.256924,11.84 h -1.451549 l -0.364726,1.84 c -0.558443,2.817288 -0.667982,3.113545 -0.970333,2.624331 -0.142844,-0.231127 -0.432806,-1.337568 -0.644359,-2.458758 L 27.441314,11.807046 26.14109,11.903523 24.840865,12 24.40129,14.08 c -0.674622,3.192204 -0.776965,3.228976 -1.3359,0.48 L 22.544879,12 21.004954,11.901344 c -1.358446,-0.08703 -1.519767,-0.03046 -1.368884,0.48 0.09407,0.318261 0.632243,2.198656 1.195935,4.178656 l 1.024896,3.6 h 1.683422 1.683422 z M 36.8,16 V 11.84 H 35.36 33.92 V 16 20.16 h 1.44 1.44 z"
         id="path387" />
      <path
         style="fill:#acacac;stroke-width:0.32"
         d="M 13.76,24.183214 C 6.28,19.909677 0.16,16.227385 0.16,16.000343 0.16,15.533684 27.440805,-0.07382716 28.008103,0.06827803 28.575504,0.21040915 55.996262,15.819149 55.996262,16 c 0,0.253901 -27.571009,15.833693 -28.131726,15.896641 C 27.587041,31.927794 21.24,28.456751 13.76,24.183214 Z m 2.537253,-4.263711 c 3.024151,-1.542052 3.352041,-5.52985 0.619303,-7.531943 -1.987629,-1.456202 -5.435073,-0.882323 -6.687194,1.113184 -0.859681,1.370073 -0.7548958,4.351255 0.19019,5.410985 1.380898,1.54841 3.952688,1.989361 5.877701,1.007774 z m -3.287657,-1.9447 c -0.745376,-0.823631 -0.710837,-3.31159 0.0556,-4.005207 0.830442,-0.75154 1.507259,-0.658115 2.271577,0.313559 1.702642,2.164558 -0.519323,5.689305 -2.327177,3.691648 z M 25.572205,18.4 l 0.478522,-1.92 0.445751,2.015644 0.445751,2.015644 1.644052,-0.09564 1.644051,-0.09564 1.000379,-3.401095 c 1.64646,-5.597643 1.646771,-5.078905 -0.003,-5.078905 -1.575918,0 -1.500625,-0.105708 -2.10831,2.96 -0.200599,1.012 -0.416694,1.84 -0.480211,1.84 -0.06352,0 -0.355762,-1.08 -0.649434,-2.4 l -0.53395,-2.4 h -1.356549 -1.356549 l -0.4254,2.254532 c -0.23397,1.239993 -0.525331,2.316293 -0.647469,2.391778 -0.122137,0.07549 -0.406176,-0.939054 -0.631195,-2.254532 L 22.629467,11.84 h -1.592056 c -1.361765,0 -1.569707,0.081 -1.43756,0.56 0.08497,0.308 0.625608,2.258837 1.201413,4.335194 l 1.046919,3.775194 1.62275,-0.09519 1.62275,-0.09519 z M 36.8,16.16 v -4.32 h -1.44 -1.44 v 4.32 4.32 h 1.44 1.44 z m 6.867299,3.824579 C 44.654518,19.516113 45.44,18.401062 45.44,17.468098 45.44,16.646672 44.18616,15.469142 42.901741,15.084321 42.151984,14.859688 41.6,14.496219 41.6,14.227155 c 0,-0.540141 1.042592,-0.61673 1.930042,-0.141781 0.510272,0.27309 0.691712,0.163427 1.129139,-0.682465 0.597923,-1.156259 0.39439,-1.412257 -1.397063,-1.757169 C 40.6068,11.134507 38.656,12.207686 38.656,14.179669 c 0,1.544098 0.189898,1.769708 2.260237,2.685311 1.654454,0.731677 1.747702,0.827604 1.196374,1.230744 -0.507513,0.371104 -0.768265,0.366046 -1.724403,-0.03345 C 39.768646,17.803401 39.23135,17.629489 39.194211,17.675799 38.939632,17.993264 38.4,19.213906 38.4,19.472296 c 0,0.927701 3.644845,1.282188 5.267299,0.512283 z"
         id="path385" />
      <path
         style="fill:#8c8c8c;stroke-width:0.32"
         d="M 13.92,24.188147 C 6.352,19.894959 0.16,16.210043 0.16,15.999444 0.16,15.788845 6.3873315,12.086451 13.998515,7.7719024 L 27.837029,-0.07273165 41.911299,7.8836342 C 49.65215,12.259636 55.985571,15.912 55.985571,16 c 0,0.159598 -27.892011,16.00272 -28.162863,15.996971 C 27.744218,31.995305 21.488,28.481334 13.92,24.188147 Z m 2.74484,-4.400558 c 3.980342,-2.237077 2.164331,-8.268995 -2.488949,-8.267092 -1.505076,6.08e-4 -3.203869,0.83782 -4.054682,1.998242 -0.8803133,1.200655 -0.8803133,3.761867 0,4.962522 1.443752,1.969128 4.336746,2.546667 6.543631,1.306328 z M 13.12,17.92 c -1.262602,-1.262602 -0.49387,-4.48 1.070404,-4.48 0.809985,0 1.63505,1.291806 1.63505,2.56 0,1.268194 -0.825065,2.56 -1.63505,2.56 C 13.953682,18.56 13.472,18.272 13.12,17.92 Z m 12.184593,2 c 0.01353,-0.308 0.205106,-1.136 0.425734,-1.84 l 0.401141,-1.28 0.396953,1.84 0.396954,1.84 h 1.679038 1.679039 l 1.186985,-4.24 c 0.652843,-2.332 1.183067,-4.348 1.178273,-4.48 -0.0048,-0.132 -0.653967,-0.24 -1.442613,-0.24 -1.225086,0 -1.457787,0.104853 -1.597902,0.72 -0.0902,0.396 -0.354681,1.584 -0.587736,2.64 l -0.423736,1.92 -0.588101,-2.655969 -0.5881,-2.655969 -1.310261,0.09597 L 24.8,11.68 24.336689,14 C 24.081868,15.276 23.786358,16.32 23.68,16.32 23.573642,16.32 23.278132,15.276 23.023311,14 L 22.56,11.68 21.04,11.582467 c -1.80825,-0.116029 -1.792926,-0.18746 -0.744715,3.471367 0.426407,1.488391 0.935958,3.318166 1.132334,4.066166 l 0.357049,1.36 h 1.747666 c 1.441742,0 1.751971,-0.09803 1.772259,-0.56 z M 36.8,15.982467 v -4.497533 l -1.52,0.09753 -1.52,0.09753 -0.09035,3.98225 c -0.04969,2.190237 -0.01821,4.170237 0.06996,4.4 0.09924,0.258622 0.712653,0.41775 1.610352,0.41775 H 36.8 Z m 7.249462,3.879611 C 46.204963,18.547742 45.61209,15.996863 42.931011,15.049867 41.406128,14.511255 41.065222,13.595559 42.48,13.838423 c 0.484,0.08308 1.111421,0.250937 1.394266,0.373006 0.376544,0.162507 0.624582,-0.04438 0.926198,-0.772546 C 45.389565,12.016662 44.902845,11.68 42.257597,11.68 c -2.382823,0 -3.308807,0.484865 -3.669341,1.921343 -0.343971,1.370499 0.334371,2.404127 2.054778,3.130978 1.852604,0.782703 2.194633,1.661744 0.556966,1.431451 -0.572,-0.08044 -1.271421,-0.247699 -1.554266,-0.371696 -0.37752,-0.165501 -0.622969,0.03699 -0.923072,0.761498 -0.224844,0.542821 -0.353424,1.033093 -0.285734,1.089493 1.212678,1.010423 4.128054,1.124186 5.612534,0.219011 z"
         id="path383" />
      <path
         style="fill:#6c6d6d;stroke-width:0.32"
         d="M 13.922806,24.156678 C 6.3563494,19.855765 0.12294758,16.208843 0.07080172,16.052405 0.01865586,15.895968 6.2454237,12.212491 13.908063,7.8669018 L 27.840135,-0.0341696 41.760067,7.8565075 C 49.416032,12.19638 55.68,15.859338 55.68,15.996414 c 0,0.212024 -27.578172,16.025103 -27.889942,15.991846 -0.06053,-0.0065 -6.300795,-3.53067 -13.867252,-7.831582 z m 2.697462,-4.261403 c 2.952921,-1.583669 2.952921,-6.206881 0,-7.79055 -3.080619,-1.652154 -6.8190405,0.149883 -7.2258389,3.483083 -0.4348627,3.563151 3.8504469,6.117709 7.2258389,4.307467 z M 13.12,17.92 C 12.693333,17.493333 12.48,16.853333 12.48,16 c 0,-0.853333 0.213333,-1.493333 0.64,-1.92 0.791732,-0.791732 1.016864,-0.795662 1.957276,-0.03416 0.959092,0.776625 1.038148,2.86263 0.145855,3.848602 C 14.46838,18.728432 13.934915,18.734915 13.12,17.92 Z m 12.479258,0.72 c 0.456618,-1.995188 0.416271,-2.030605 1.093622,0.96 0.186928,0.825318 0.305547,0.88 1.908918,0.88 h 1.709604 l 1.164299,-4.089347 C 32.116064,14.141513 32.64,12.125513 32.64,11.910653 32.64,11.66187 32.12488,11.52 31.221564,11.52 c -1.569007,0 -1.494759,-0.104543 -2.102213,2.96 -0.200599,1.012 -0.416694,1.84 -0.480211,1.84 -0.06352,0 -0.357429,-1.087492 -0.653138,-2.416649 l -0.537654,-2.416649 -1.321236,0.09665 -1.321236,0.09665 -0.536826,2.24 c -0.295254,1.232 -0.562363,2.312 -0.593574,2.4 -0.03121,0.088 -0.294963,-0.92 -0.586112,-2.24 L 22.56,11.68 21.04,11.582467 c -1.240532,-0.0796 -1.52,-1.27e-4 -1.52,0.432249 0,0.433163 0.664307,2.910382 2.119932,7.905284 0.128781,0.441908 0.519057,0.56 1.850711,0.56 h 1.687514 z M 36.8,15.982467 v -4.497533 l -1.52,0.09753 -1.52,0.09753 -0.08903,4.4 -0.08903,4.4 H 35.19097 36.8 Z m 7.046406,4.014221 C 46.384045,18.684424 45.869491,16.191487 42.8,14.927001 c -2.149581,-0.885527 -1.126986,-1.544932 1.074266,-0.692724 0.367417,0.142245 0.631891,-0.08488 0.926198,-0.795394 0.566314,-1.367206 0.13983,-1.699242 -2.38945,-1.860295 -1.955721,-0.12453 -2.119619,-0.07921 -3.03911,0.840276 -1.67463,1.674633 -0.977354,3.694461 1.56505,4.53353 1.615414,0.533135 1.809929,1.428905 0.263046,1.211378 -0.572,-0.08044 -1.266352,-0.245754 -1.543002,-0.367374 -0.351408,-0.154483 -0.61662,0.02824 -0.88,0.606295 C 38.569648,18.857774 38.4,19.371979 38.4,19.545369 c 0,0.919209 3.914352,1.243574 5.446406,0.451319 z"
         id="path381" />
      <path
         style="fill:#dc0414;stroke-width:0.32"
         d="M 13.92,24.135221 C 6.352,19.829925 0.16,16.169065 0.16,15.999978 0.16,15.830891 6.388,12.161062 14,7.8448042 l 13.84,-7.8477424 13.84,7.8477424 c 7.612,4.3162578 13.84,7.9862228 13.84,8.1554758 0,0.251752 -26.462679,15.497208 -27.52,15.85459 -0.176,0.05949 -6.512,-3.414353 -14.08,-7.719649 z m 2.563271,-4.115965 c 2.196696,-0.917838 3.126346,-4.258845 1.793312,-6.444867 -1.373077,-2.251689 -5.479905,-2.770683 -7.396267,-0.934692 -1.1647243,1.115877 -1.729613,2.730758 -1.459283,4.171741 0.2292918,1.222232 1.542408,2.949755 2.552867,3.358529 1.055392,0.426951 3.306932,0.351701 4.509371,-0.150711 z M 13.12,17.92 c -1.350276,-1.350276 -0.378457,-4.823724 1.192742,-4.263067 1.111878,0.396756 1.367258,0.838331 1.367258,2.364104 0,1.231396 -0.143504,1.643187 -0.711202,2.040818 C 14.053548,18.702921 13.890403,18.690403 13.12,17.92 Z m 12.529293,0.72 c 0.229383,-1.016551 0.465335,-1.553583 0.527237,-1.2 0.06163,0.352 0.250667,1.18 0.420092,1.84 l 0.308046,1.2 h 1.726102 c 1.366267,0 1.761292,-0.116741 1.894905,-0.56 C 31.294024,17.371015 32.64,12.282666 32.64,11.92697 c 0,-0.327516 -0.392323,-0.416768 -1.514329,-0.344503 l -1.51433,0.09753 -0.462823,2.4 -0.462824,2.4 -0.388145,-1.6 C 28.084069,14 27.819045,12.884 27.708605,12.4 27.527195,11.604968 27.372856,11.52 26.110137,11.52 h -1.397669 l -0.393217,2.083972 c -0.21627,1.146184 -0.498439,2.149001 -0.627043,2.228483 -0.128605,0.07948 -0.41304,-0.858305 -0.632079,-2.083971 L 22.661877,11.52 h -1.517605 c -0.834683,0 -1.5973,0.0797 -1.694705,0.1771 -0.0974,0.0974 0.08418,1.069404 0.40353,2.16 0.319346,1.090595 0.885138,3.0269 1.257316,4.3029 l 0.676688,2.32 h 1.7235 1.723501 z M 36.8,16 V 11.52 H 35.2 33.6 V 16 20.48 h 1.6 1.6 z m 7.878579,3.409515 c 0.831975,-0.967226 0.989136,-2.347376 0.361421,-3.17384 -0.22,-0.289657 -1.084,-0.816062 -1.92,-1.16979 -2.355523,-0.996666 -1.674739,-1.772229 0.736099,-0.838579 0.345952,0.133977 0.655495,-0.142134 1.022762,-0.912296 l 0.526659,-1.104421 -0.990512,-0.345295 c -1.282086,-0.446938 -3.532717,-0.441968 -4.524666,0.01 C 39.084477,12.242465 38.4,13.376214 38.4,14.343855 c 0,0.950507 0.977878,2.006553 2.437312,2.632139 1.669766,0.715746 1.879011,1.401008 0.362688,1.187778 -0.572,-0.08044 -1.263245,-0.244562 -1.536099,-0.364725 -0.356231,-0.156881 -0.642819,0.0892 -1.016503,0.872821 -0.503254,1.055331 -0.497449,1.102965 0.1761,1.445221 0.383075,0.194657 1.685862,0.314256 2.895081,0.265776 1.949648,-0.07816 2.284791,-0.188372 2.96,-0.97335 z"
         id="path379" />
      <path
         style="fill:#4e4e4e;stroke-width:0.32"
         d="M 13.92,24.135221 C 6.352,19.829925 0.16,16.169065 0.16,15.999978 0.16,15.830891 6.388,12.161062 14,7.8448042 l 13.84,-7.8477424 13.84,7.8477424 c 7.612,4.3162578 13.84,7.9862228 13.84,8.1554758 0,0.251752 -26.462679,15.497208 -27.52,15.85459 -0.176,0.05949 -6.512,-3.414353 -14.08,-7.719649 z m 2.563271,-4.115965 c 2.196696,-0.917838 3.126346,-4.258845 1.793312,-6.444867 -1.373077,-2.251689 -5.479905,-2.770683 -7.396267,-0.934692 -1.1647243,1.115877 -1.729613,2.730758 -1.459283,4.171741 0.2292918,1.222232 1.542408,2.949755 2.552867,3.358529 1.055392,0.426951 3.306932,0.351701 4.509371,-0.150711 z M 13.12,17.92 c -1.350276,-1.350276 -0.378457,-4.823724 1.192742,-4.263067 1.111878,0.396756 1.367258,0.838331 1.367258,2.364104 0,1.231396 -0.143504,1.643187 -0.711202,2.040818 C 14.053548,18.702921 13.890403,18.690403 13.12,17.92 Z m 12.529293,0.72 c 0.229383,-1.016551 0.465335,-1.553583 0.527237,-1.2 0.06163,0.352 0.250667,1.18 0.420092,1.84 l 0.308046,1.2 h 1.726102 c 1.366267,0 1.761292,-0.116741 1.894905,-0.56 C 31.294024,17.371015 32.64,12.282666 32.64,11.92697 c 0,-0.327516 -0.392323,-0.416768 -1.514329,-0.344503 l -1.51433,0.09753 -0.462823,2.4 -0.462824,2.4 -0.388145,-1.6 C 28.084069,14 27.819045,12.884 27.708605,12.4 27.527195,11.604968 27.372856,11.52 26.110137,11.52 h -1.397669 l -0.393217,2.083972 c -0.21627,1.146184 -0.498439,2.149001 -0.627043,2.228483 -0.128605,0.07948 -0.41304,-0.858305 -0.632079,-2.083971 L 22.661877,11.52 h -1.517605 c -0.834683,0 -1.5973,0.0797 -1.694705,0.1771 -0.0974,0.0974 0.08418,1.069404 0.40353,2.16 0.319346,1.090595 0.885138,3.0269 1.257316,4.3029 l 0.676688,2.32 h 1.7235 1.723501 z M 36.8,16 V 11.52 H 35.2 33.6 V 16 20.48 h 1.6 1.6 z m 7.878579,3.409515 c 0.831975,-0.967226 0.989136,-2.347376 0.361421,-3.17384 -0.22,-0.289657 -1.084,-0.816062 -1.92,-1.16979 -2.355523,-0.996666 -1.674739,-1.772229 0.736099,-0.838579 0.345952,0.133977 0.655495,-0.142134 1.022762,-0.912296 l 0.526659,-1.104421 -0.990512,-0.345295 c -1.282086,-0.446938 -3.532717,-0.441968 -4.524666,0.01 C 39.084477,12.242465 38.4,13.376214 38.4,14.343855 c 0,0.950507 0.977878,2.006553 2.437312,2.632139 1.669766,0.715746 1.879011,1.401008 0.362688,1.187778 -0.572,-0.08044 -1.263245,-0.244562 -1.536099,-0.364725 -0.356231,-0.156881 -0.642819,0.0892 -1.016503,0.872821 -0.503254,1.055331 -0.497449,1.102965 0.1761,1.445221 0.383075,0.194657 1.685862,0.314256 2.895081,0.265776 1.949648,-0.07816 2.284791,-0.188372 2.96,-0.97335 z M 36.279498,9.9647533 c 0.744003,-0.8221146 0.209737,-2.2868631 -0.831578,-2.2798531 -1.513386,0.010189 -2.182742,1.2602774 -1.200662,2.2423577 0.790137,0.7901381 1.341897,0.8003181 2.03224,0.037495 z"
         id="path377" />
      <path
         style="fill:#a5101e;stroke-width:0.32"
         d="M 13.84,24.057124 C 6.228,19.721944 0,16.095685 0,15.99877 0,15.901855 6.2654816,12.273202 13.923292,7.9350976 L 27.846585,0.04763457 41.763293,7.9388627 C 49.417482,12.279038 55.68,15.90844 55.68,16.0042 55.68,16.158922 28.362338,31.76652 27.876049,31.889634 27.768222,31.916932 21.452,28.392303 13.84,24.057124 Z m 3.024464,-4.204169 c 2.776524,-1.692946 2.660725,-6.360966 -0.194422,-7.837419 -1.300841,-0.672692 -3.790402,-0.629411 -5.13031,0.08919 -2.873636,1.541148 -2.9748578,5.899767 -0.179732,7.739271 1.303349,0.857749 4.104924,0.862309 5.504464,0.009 z M 12.79208,17.419168 C 12.098039,15.593703 12.82708,13.76 14.246886,13.76 15.151147,13.76 15.68,14.586614 15.68,16 c 0,1.523412 -0.517984,2.24 -1.619179,2.24 -0.732471,0 -1.029796,-0.192359 -1.268741,-0.820832 z M 25.394546,19.92 c 0.08672,-0.308 0.267602,-1.064 0.401959,-1.68 l 0.244284,-1.12 0.355491,1.6 0.355491,1.6 1.810649,0.09557 1.81065,0.09557 0.521619,-1.855568 C 31.181579,17.635005 31.699492,15.792 32.04561,14.56 c 0.346115,-1.232 0.691792,-2.427468 0.768169,-2.656596 0.104736,-0.314189 -0.269472,-0.39285 -1.522303,-0.32 l -1.661175,0.0966 -0.518153,2.4 -0.518154,2.4 -0.236535,-1.28 c -0.130094,-0.704 -0.377293,-1.82 -0.549331,-2.48 -0.30106,-1.154976 -0.365059,-1.2 -1.705731,-1.2 h -1.392934 l -0.413438,2.08 c -0.227391,1.144 -0.514715,2.08 -0.638498,2.08 -0.123782,0 -0.40167,-0.936 -0.617527,-2.08 l -0.392468,-2.08 h -1.74533 c -1.511056,0 -1.723424,0.07517 -1.582134,0.56 0.08976,0.308 0.610251,2.144 1.156651,4.08 0.5464,1.936 1.054147,3.7 1.128325,3.92 0.08589,0.25474 0.76983,0.4 1.883349,0.4 1.391819,0 1.780642,-0.114231 1.906153,-0.56 z M 36.8,16 V 11.52 H 35.2 33.6 V 16 20.48 h 1.6 1.6 z m 7.704614,3.544615 c 1.698685,-1.698684 1.043735,-3.76207 -1.464614,-4.614187 -0.704,-0.239157 -1.208,-0.564341 -1.12,-0.72263 0.174509,-0.313895 0.38887,-0.312276 1.612294,0.01218 0.700362,0.185737 0.884404,0.0642 1.335623,-0.882018 0.515443,-1.080894 0.511414,-1.102869 -0.267351,-1.457697 C 44.165693,11.682116 42.946115,11.52 41.890397,11.52 c -1.611309,0 -2.045594,0.126107 -2.704941,0.785454 -1.533098,1.533097 -0.794304,3.621992 1.651856,4.67054 2.381453,1.020809 1.577878,1.618251 -1.053072,0.782939 -0.564422,-0.1792 -0.795398,-0.02822 -1.223597,0.799822 -0.290307,0.561396 -0.481216,1.058101 -0.42424,1.103789 0.690887,0.553992 1.727434,0.799647 3.408211,0.807725 1.817527,0.0087 2.120295,-0.08595 2.96,-0.925654 z M 36.279498,9.9647533 c 0.744003,-0.8221146 0.209737,-2.2868631 -0.831578,-2.2798531 -1.513386,0.010189 -2.182742,1.2602774 -1.200662,2.2423577 0.790137,0.7901381 1.341897,0.8003181 2.03224,0.037495 z"
         id="path375" />
      <path
         style="fill:#2d2d2d;stroke-width:0.32"
         d="M 13.84,24.057124 C 6.228,19.721944 0,16.095685 0,15.99877 0,15.901855 6.2654816,12.273202 13.923292,7.9350976 L 27.846585,0.04763457 41.763293,7.9388627 C 49.417482,12.279038 55.68,15.90844 55.68,16.0042 55.68,16.158922 28.362338,31.76652 27.876049,31.889634 27.768222,31.916932 21.452,28.392303 13.84,24.057124 Z m 3.024464,-4.204169 c 2.776524,-1.692946 2.660725,-6.360966 -0.194422,-7.837419 -1.300841,-0.672692 -3.790402,-0.629411 -5.13031,0.08919 -2.873636,1.541148 -2.9748578,5.899767 -0.179732,7.739271 1.303349,0.857749 4.104924,0.862309 5.504464,0.009 z M 12.79208,17.419168 C 12.098039,15.593703 12.82708,13.76 14.246886,13.76 15.151147,13.76 15.68,14.586614 15.68,16 c 0,1.523412 -0.517984,2.24 -1.619179,2.24 -0.732471,0 -1.029796,-0.192359 -1.268741,-0.820832 z M 25.394546,19.92 c 0.08672,-0.308 0.267602,-1.064 0.401959,-1.68 l 0.244284,-1.12 0.355491,1.6 0.355491,1.6 1.810649,0.09557 1.81065,0.09557 0.521619,-1.855568 C 31.181579,17.635005 31.699492,15.792 32.04561,14.56 c 0.346115,-1.232 0.691792,-2.427468 0.768169,-2.656596 0.104736,-0.314189 -0.269472,-0.39285 -1.522303,-0.32 l -1.661175,0.0966 -0.518153,2.4 -0.518154,2.4 -0.236535,-1.28 c -0.130094,-0.704 -0.377293,-1.82 -0.549331,-2.48 -0.30106,-1.154976 -0.365059,-1.2 -1.705731,-1.2 h -1.392934 l -0.413438,2.08 c -0.227391,1.144 -0.514715,2.08 -0.638498,2.08 -0.123782,0 -0.40167,-0.936 -0.617527,-2.08 l -0.392468,-2.08 h -1.74533 c -1.511056,0 -1.723424,0.07517 -1.582134,0.56 0.08976,0.308 0.610251,2.144 1.156651,4.08 0.5464,1.936 1.054147,3.7 1.128325,3.92 0.08589,0.25474 0.76983,0.4 1.883349,0.4 1.391819,0 1.780642,-0.114231 1.906153,-0.56 z M 36.8,16 V 11.52 H 35.2 33.6 V 16 20.48 h 1.6 1.6 z m 7.704614,3.544615 c 1.698685,-1.698684 1.043735,-3.76207 -1.464614,-4.614187 -0.704,-0.239157 -1.208,-0.564341 -1.12,-0.72263 0.174509,-0.313895 0.38887,-0.312276 1.612294,0.01218 0.700362,0.185737 0.884404,0.0642 1.335623,-0.882018 0.515443,-1.080894 0.511414,-1.102869 -0.267351,-1.457697 C 44.165693,11.682116 42.946115,11.52 41.890397,11.52 c -1.611309,0 -2.045594,0.126107 -2.704941,0.785454 -1.533098,1.533097 -0.794304,3.621992 1.651856,4.67054 2.381453,1.020809 1.577878,1.618251 -1.053072,0.782939 -0.564422,-0.1792 -0.795398,-0.02822 -1.223597,0.799822 -0.290307,0.561396 -0.481216,1.058101 -0.42424,1.103789 0.690887,0.553992 1.727434,0.799647 3.408211,0.807725 1.817527,0.0087 2.120295,-0.08595 2.96,-0.925654 z M 36.298838,10.455044 C 37.427984,9.6293939 36.812755,7.36 35.459779,7.36 34.287722,7.36 33.6,7.97236 33.6,9.0159811 c 0,1.5708509 1.456502,2.3474809 2.698838,1.4390629 z"
         id="path373" />
      <path
         style="fill:#010000;stroke-width:0.32"
         d="M 13.687751,23.907916 C 6.1680141,19.646562 0.01546245,16.088 0.01541406,16 0.01527978,15.755773 27.406478,0.32 27.84,0.32 c 0.433465,0 27.824675,15.43573 27.824675,15.68 0,0.270351 -27.416993,15.6808 -27.875056,15.667916 -0.23629,-0.0066 -6.582131,-3.498647 -14.101868,-7.76 z m 1.85081,-3.465971 c 0.935586,-0.235583 1.750241,-0.73194 2.381702,-1.451135 C 18.755812,18.039173 18.88,17.652167 18.88,16 c 0,-1.652167 -0.124188,-2.039173 -0.959737,-2.99081 -2.224063,-2.533068 -6.965895,-1.997072 -8.1869913,0.925422 -0.5691411,1.362146 -0.5769197,2.75014 -0.022841,4.075666 0.5255303,1.257229 1.1200343,1.773353 2.6865373,2.332342 1.495799,0.533759 1.425166,0.531526 3.141593,0.09933 z m -2.560416,-2.913147 c -1.39909,-1.997482 0.559125,-4.905814 2.198998,-3.265941 0.57135,0.57135 0.666501,2.433447 0.171598,3.35818 -0.449372,0.83966 -1.753408,0.78892 -2.370596,-0.09224 z m 29.983938,2.933801 C 44.609024,20.005226 45.44,19.032797 45.44,17.562886 c 0,-1.348354 -0.936406,-2.326285 -2.571357,-2.68538 -1.63943,-0.360079 -1.545011,-0.922378 0.116637,-0.694624 1.425354,0.195367 1.506358,0.162827 2.007594,-0.806455 0.483363,-0.934719 0.483216,-1.038624 -0.0019,-1.393403 -0.821472,-0.600675 -2.988829,-0.829792 -4.359111,-0.460813 -1.464819,0.39442 -2.231843,1.34076 -2.231843,2.75354 0,1.310229 0.804646,2.251889 2.381987,2.787585 0.694096,0.235728 1.318096,0.596911 1.386669,0.80263 0.173162,0.519489 -1.057251,0.468763 -2.133859,-0.08797 -0.874227,-0.452079 -0.905194,-0.437322 -1.441271,0.68684 -0.617923,1.295799 -0.496908,1.514246 1.086474,1.961255 1.499824,0.423419 1.873891,0.42758 3.282083,0.03651 z M 25.604903,19.12 c 0.192265,-0.748 0.392703,-1.504 0.445419,-1.68 0.05271,-0.176 0.203365,0.442497 0.334776,1.374439 l 0.23893,1.694438 1.942475,-0.09444 L 30.508978,20.32 31.725753,16 c 0.669226,-2.376 1.220705,-4.356 1.225511,-4.4 0.0048,-0.044 -0.760202,-0.08 -1.700015,-0.08 h -1.708751 l -0.430482,2.32 -0.430482,2.32 -0.525619,-2.24 -0.52562,-2.24 -1.468518,-0.09645 -1.468518,-0.09644 -0.397268,1.856445 C 23.900973,15.18949 23.36,16.308548 23.36,15.279751 c 0,-0.290537 -0.155932,-1.255337 -0.346516,-2.144 L 22.666967,11.52 H 20.933484 C 19.980068,11.52 19.2,11.59856 19.2,11.694579 c 0,0.274565 2.301948,8.277417 2.458013,8.545421 0.07687,0.132 0.917709,0.24 1.868538,0.24 h 1.728781 z M 36.8,16 V 11.52 H 35.2 33.6 V 16 20.48 h 1.6 1.6 z M 36.667898,10.082331 C 37.736637,8.451231 36.170528,6.611519 34.4,7.4182253 33.321824,7.9094746 33.181587,9.7234342 34.16329,10.48 c 0.839209,0.646748 1.934195,0.472892 2.504608,-0.397669 z"
         id="path371" />
    </g>
  </g>
</svg>
