<?xml version="1.0" encoding="UTF-8" standalone="no"?>
<!-- Created with Inkscape (http://www.inkscape.org/) -->

<svg
   version="1.1"
   id="svg9"
   width="200.89497"
   height="163.05986"
   viewBox="0 0 200.89497 163.05986"
   sodipodi:docname="stepper-motor-driver.svg"
   inkscape:version="1.1.1 (3bf5ae0d25, 2021-09-20)"
   xmlns:inkscape="http://www.inkscape.org/namespaces/inkscape"
   xmlns:sodipodi="http://sodipodi.sourceforge.net/DTD/sodipodi-0.dtd"
   xmlns="http://www.w3.org/2000/svg"
   xmlns:svg="http://www.w3.org/2000/svg">
  <defs
     id="defs13" />
  <sodipodi:namedview
     id="namedview11"
     pagecolor="#ffffff"
     bordercolor="#666666"
     borderopacity="1.0"
     inkscape:pageshadow="2"
     inkscape:pageopacity="0.0"
     inkscape:pagecheckerboard="0"
     showgrid="false"
     fit-margin-top="0"
     fit-margin-left="0"
     fit-margin-right="0"
     fit-margin-bottom="0"
     inkscape:zoom="0.95875"
     inkscape:cx="210.16949"
     inkscape:cy="93.350717"
     inkscape:window-width="1920"
     inkscape:window-height="1017"
     inkscape:window-x="-8"
     inkscape:window-y="-8"
     inkscape:window-maximized="1"
     inkscape:current-layer="g15" />
  <g
     inkscape:groupmode="layer"
     inkscape:label="Image"
     id="g15"
     transform="translate(0.04810218,-22.46724)">
    <path
       style="fill:#072555;stroke:none"
       d="m 30.999998,145.68765 c 1.934,22.151 23.6621,23.479 41,28.421 14.288,4.073 35.094002,14.227 50.000002,10.679 11.71,-2.788 20.272,-13.29 31.015,-16.257 4.196,-1.158 8.676,0.577 12.985,-0.172 8.736,-1.518 20.931,-8.112 26.786,-14.711 10.942,-12.331 6.037,-36.752 6.218,-51.96 0.213,-17.922597 6.587,-42.807897 -5.685,-57.959897 -6.307,-7.7884 -14.986,-9.5453 -24.319,-11.1211 -19.667,-3.3208 -45.237,-13.4798 -65,-9.0309 -10.993402,2.4748 -17.539202,11.4573 -28.000002,13.5687 -13.258,2.676 -27.3799,-1.7513 -39.9568,6.5378 -8.1101,5.3451 -7.4465,14.6199 -7.0826,23.0054 0.6228,14.3489 3.1158,32.9811 0.8913,46.984997 -1.6456,10.358 -21.1986996,8.458 -27.4182596,15.293 -5.81441,6.389 -0.64321,20.355 7.5671596,22.056 6.3851,1.323 14.7839,-3.896 20.9992,-5.334 m 126.000002,18 c 4.301,-6.106 12.796,-10.947 15.397,-18 2.846,-7.72 0.603,-19.808 0.603,-28 0,-24.173697 5.487,-52.737497 -16.379,-70.272397 -7.797,-6.2525 -25.909,-6.8412 -35.621,-8.9375 -9.704,-2.0947 -20.133,-6.3132 -30.000002,-3.7901 8.9957,-14.2016 35.135002,-5.4893 48.000002,-3.25 17.622,3.0673 46.21,2.5564 54.648,21.25 4.455,9.8701 1.478,20.6976 1.356,31 -0.193,16.2335 1.184,32.871997 -0.719,48.999997 -0.6,5.09 0.285,10.345 -2.375,14.999 -3.641,6.373 -10.667,9.127 -16.91,12.248 -6.267,3.133 -10.95,5.427 -18,3.753 m -14,-4 4,-1 c -0.217,9.24 -5.434,13.532 -14,16 3.056,-9.64 2,-19.983 2,-30 0,-24.093 7.593,-62.169197 -11.289,-80.699097 -6.278,-6.1609 -14.5,-7.6317 -22.711,-9.6744 -15.478502,-3.8507 -32.098802,-9.3277 -48.000002,-10.6265 11.561,-6.9362 30.8958,1.4019 43,4.3742 10.234002,2.5131 20.631002,5.062 31.000002,6.9468 5.941,1.0799 10.162,0.2466 14.957,4.787 3.897,3.6909 8.778,10.9019 7.636,16.6829 -0.934,4.7227 -4.554,6.6295 -4.592,12.2091 -0.163,23.601997 -0.146,47.489997 -2.001,70.999997 m -107.000002,-17 c 5.2141,-1.206 13.7125,-6.574 18.9105,-5.211 4.6199,1.21 8.5881,7.961 12.0895,11.026 10.3824,9.089 25.9941,11.307 35.000002,-0.815 -17.098202,4.665 -30.749202,3.388 -41.000002,-13 9.7606,-4.537 19.7001,6.203 27.6597,-1.394 11.560302,-11.035 1.1668,-41.363197 -15.6597,-40.453997 -9.6513,0.5215 -7.9193,10.120997 -13.5131,14.622997 -5.6239,4.527 -17.4483,7.186 -24.4869,8.225 0,-15.997497 -0.9296,-31.959497 -1.0008,-47.999997 -0.0287,-6.4851 -1.6968,-14.5614 4.3303,-19.1065 7.4653,-5.6296 22.6271,0.0844 30.6705,1.9908 23.2665,5.5144 61.202002,6.6252 61.985002,38.1157 0.531,21.310997 -0.087,42.681997 0.016,63.999997 0.037,7.629 2.659,18.651 -4.226,24.347 -7.238,5.989 -19.914,1.619 -27.775002,-0.638 -19.3555,-5.557 -62.4579,-8.259 -63,-33.709 m 5.6034,-85.824097 c -3.041,1.8401 0.6655,8.5407 3.7932,6.6482 3.041,-1.84 -0.6655,-8.5407 -3.7932,-6.6482 M 117,89.687653 c 7.093,-16.3145 -17.436902,-6.1091 0,0 m -32.000002,4 v 1 c 5.6879,7.400797 9.1101,14.867997 11,23.999997 H 110 c -0.731,-9.183 -3.753,-18.0212 -8.337,-25.999997 -1.332,-2.3171 -3.594402,-6.7928 -6.753302,-6.7932 -3.722,-5e-4 -7.5252,5.4105 -9.9097,7.7932 m -69,52.999997 c 0.7175,-7.836 6.3282,-8.933 13,-11.308 12.2985,-4.377 24.7914,-8.26 37,-12.884 5.9624,-2.258 15.2519,-2.965 15,-10.808 -16.9856,3.93 -33.5043,11.383 -50,17.003 -8.353,2.846 -15.0099,7.758 -20.9999996,-1.003 16.2944996,-3.77 32.1296996,-11.043 47.9999996,-16.333 5.0988,-1.7 13.5939,-6.767 18.9599,-4.885 6.8286,2.396 9.473,13.946 2.9313,17.943 -6.1656,3.768 -14.1607,5.183 -20.8912,7.699 -13.651,5.104 -28.6461,12.106 -43,14.576 m 26,-1 c 0.6285,11.375 9.382,2.788 0,0 m 70.593002,19.176 c -2.894,1.713 -0.097,7.655 3.093,6.478 3.72,-1.372 0.198,-8.426 -3.093,-6.478 z"
       id="path461" />
  </g>
</svg>
